<?xml version="1.0" standalone="no"?>
<!DOCTYPE svg PUBLIC "-//W3C//DTD SVG 1.1//EN" "http://www.w3.org/Graphics/SVG/1.1/DTD/svg11.dtd" >
<svg xmlns="http://www.w3.org/2000/svg" xmlns:xlink="http://www.w3.org/1999/xlink" version="1.1">
<metadata>
Created by FontForge 20160113 at Tue May 10 02:57:14 2016
 By root
Copyright 1990-2003 Bitstream Inc. All rights reserved.
</metadata>
<defs>
<font id="GeometricSlab703BT-BoldCond" horiz-adv-x="1024" >
  <font-face 
    font-family="GeoSlab703 MdCn BT"
    font-weight="700"
    font-stretch="condensed"
    units-per-em="2048"
    panose-1="2 6 6 6 2 2 5 5 4 3"
    ascent="1556"
    descent="-492"
    x-height="895"
    cap-height="1395"
    bbox="-342 -483 2048 1976"
    underline-thickness="129"
    underline-position="-252"
    unicode-range="U+0020-F002"
  />
<missing-glyph horiz-adv-x="1229" 
d="M102 -362v1806h1024v-1806h-1024zM217 -248h795v1577h-795v-1577z" />
    <glyph glyph-name=".notdef" horiz-adv-x="1229" 
d="M102 -362v1806h1024v-1806h-1024zM217 -248h795v1577h-795v-1577z" />
    <glyph glyph-name=".null" horiz-adv-x="0" 
 />
    <glyph glyph-name="nonmarkingreturn" horiz-adv-x="397" 
 />
    <glyph glyph-name="space" unicode=" " horiz-adv-x="397" 
 />
    <glyph glyph-name="exclam" unicode="!" horiz-adv-x="582" 
d="M373 412h-164q-5 266 -15 512.5t-26 470.5h246q-16 -222 -26.5 -469t-14.5 -514zM168 94q0 50 36.5 86.5t86.5 36.5q51 0 87 -35.5t36 -87.5q0 -51 -36.5 -87t-86.5 -36q-49 0 -86 37t-37 86z" />
    <glyph glyph-name="quotedbl" unicode="&#x22;" horiz-adv-x="643" 
d="M395 1436h164v-557h-164v557zM86 1436h164v-557h-164v557z" />
    <glyph glyph-name="numbersign" unicode="#" horiz-adv-x="1575" 
d="M709 852l-91 -254h256l91 254h-256zM735 1460h191l-154 -436h250l156 436h190l-154 -436h291l-59 -172h-293l-90 -252h309l-61 -172h-307l-156 -434h-191l156 434h-252l-158 -434h-190l156 434h-299l61 172h297l90 252h-315l61 172h316z" />
    <glyph glyph-name="dollar" unicode="$" horiz-adv-x="797" 
d="M428 553v-391q61 5 98 50t37 114q0 74 -33 130t-102 97zM352 854v350q-52 0 -86.5 -41.5t-34.5 -105.5t30.5 -115t90.5 -88zM692 1358v-371l-141 1q-2 88 -32.5 140.5t-90.5 69.5v-393q171 -104 245.5 -211t74.5 -248q0 -156 -84.5 -253t-217.5 -97h-18v-199h-76v203
q-48 9 -90 36.5t-65 65.5v-96h-146v402l154 -1q3 -107 40 -167.5t107 -71.5v440q-150 89 -221.5 194t-71.5 236q0 148 79.5 236t213.5 90v135h76v-141q47 -14 80 -35.5t53 -50.5v86h131z" />
    <glyph glyph-name="percent" unicode="%" horiz-adv-x="1163" 
d="M199 -29l657 1424h107l-658 -1424h-106zM848 217q0 -47 13.5 -70.5t41.5 -23.5q27 0 40 23.5t13 70.5v279q0 47 -13 69.5t-40 22.5q-29 0 -42 -22t-13 -70v-279zM711 209v293q0 102 49 155.5t143 53.5q95 0 144 -53.5t49 -155.5v-293q0 -103 -49 -156t-144 -53
q-94 0 -143 53.5t-49 155.5zM205 870q0 -46 13.5 -69t41.5 -23t40.5 22.5t12.5 69.5v281q0 47 -13 69.5t-40 22.5q-28 0 -41.5 -23t-13.5 -69v-281zM68 864v293q0 102 49 155.5t143 53.5q95 0 144 -53t49 -156v-293q0 -103 -49 -156t-144 -53q-94 0 -143 53.5t-49 155.5z
" />
    <glyph glyph-name="ampersand" unicode="&#x26;" horiz-adv-x="1217" 
d="M401 655q-62 -53 -93.5 -113t-31.5 -126q0 -100 71 -172t169 -72q53 0 101 22.5t92 67.5zM561 788l277 -356q27 58 44 114.5t23 110.5h-98v172h364v-172h-86q-15 -108 -45.5 -199.5t-78.5 -172.5l77 -99h133v-186h-256l-98 121q-71 -76 -155 -113t-185 -37
q-184 0 -299 114.5t-115 297.5q0 116 58 219.5t176 198.5q-65 85 -96 162t-31 151q0 137 84 222t219 85q140 0 221.5 -75t81.5 -203q0 -99 -53 -186t-162 -169zM449 920q69 58 103 112.5t34 108.5q0 49 -31 79.5t-82 30.5q-54 0 -86.5 -34.5t-32.5 -92.5q0 -44 22.5 -93
t72.5 -111z" />
    <glyph glyph-name="quotesingle" unicode="'" horiz-adv-x="334" 
d="M86 1436h164v-557h-164v557z" />
    <glyph glyph-name="parenleft" unicode="(" horiz-adv-x="537" 
d="M350 -195q-126 197 -190 400t-64 409t64 408.5t190 398.5h162q-106 -205 -158.5 -406.5t-52.5 -400.5t53 -401.5t158 -407.5h-162z" />
    <glyph glyph-name="parenright" unicode=")" horiz-adv-x="537" 
d="M184 1421q128 -198 192 -400t64 -407q0 -204 -64 -407.5t-192 -401.5h-159q105 206 158 408.5t53 400.5t-53 399.5t-158 407.5h159z" />
    <glyph glyph-name="asterisk" unicode="*" horiz-adv-x="664" 
d="M219 895l-98 74l123 153l-189 56l37 114l184 -67l-8 196h125l-6 -196l184 67l37 -116l-190 -56l121 -153l-99 -72l-110 162z" />
    <glyph glyph-name="plus" unicode="+" horiz-adv-x="1706" 
d="M768 1221h170v-527h514v-166h-514v-528h-170v528h-514v166h514v527z" />
    <glyph glyph-name="comma" unicode="," horiz-adv-x="397" 
d="M137 229h174l-129 -426h-174z" />
    <glyph glyph-name="hyphen" unicode="-" horiz-adv-x="621" 
d="M57 385v170h504v-170h-504z" />
    <glyph glyph-name="period" unicode="." horiz-adv-x="397" 
d="M76 106q0 50 36.5 86.5t86.5 36.5t86.5 -36t36.5 -87q0 -50 -37 -86t-86 -36t-86 36.5t-37 85.5z" />
    <glyph glyph-name="slash" unicode="/" horiz-adv-x="596" 
d="M-49 -190l577 1611h119l-577 -1611h-119z" />
    <glyph glyph-name="zero" unicode="0" horiz-adv-x="797" 
d="M727 975v-586q0 -204 -84.5 -311t-245.5 -107q-160 0 -243.5 106.5t-83.5 311.5v586q0 205 83.5 312.5t243.5 107.5q161 0 245.5 -108t84.5 -312zM508 1065q0 70 -30 111t-81 41q-50 0 -79 -40.5t-29 -111.5v-766q0 -71 28.5 -110t79.5 -39q52 0 81.5 39.5t29.5 109.5
v766z" />
    <glyph glyph-name="one" unicode="1" horiz-adv-x="797" 
d="M193 0v164h104v1040h-104v162h319v-1202h106v-164h-425z" />
    <glyph glyph-name="two" unicode="2" horiz-adv-x="797" 
d="M63 930v84q0 189 84 285t248 96q145 0 228.5 -89.5t83.5 -244.5q0 -88 -36 -188.5t-114 -229.5l-283 -471h267v193h174v-365h-658v174l285 467q79 131 114.5 225.5t35.5 173.5q0 84 -27.5 124t-85.5 40q-66 0 -95.5 -48.5t-29.5 -156.5v-69h-191z" />
    <glyph glyph-name="three" unicode="3" horiz-adv-x="797" 
d="M510 719q98 -12 151.5 -103t53.5 -247q0 -199 -83 -298.5t-249 -99.5q-160 0 -240 94t-80 281v64h187v-52q0 -106 32.5 -158.5t98.5 -52.5q71 0 99 47t28 183q0 156 -38 203t-144 47h-15v164h8q108 0 147.5 45.5t39.5 183.5q0 109 -28 156t-91 47q-64 0 -94.5 -50.5
t-30.5 -156.5v-41h-184v53q0 184 77 275.5t232 91.5q154 0 234.5 -93.5t80.5 -271.5q0 -151 -47.5 -228.5t-144.5 -82.5z" />
    <glyph glyph-name="four" unicode="4" horiz-adv-x="797" 
d="M416 1366h200v-829h99v-160h-99v-215h99v-162h-408v162h109v215h-375v174zM188 537h232l4 510z" />
    <glyph glyph-name="five" unicode="5" horiz-adv-x="797" 
d="M127 635v731h518v-186h-332v-346q26 18 58 27t73 9q140 0 208.5 -113t68.5 -343q0 -234 -78.5 -338.5t-251.5 -104.5q-153 0 -238 84.5t-85 235.5v86h192v-55q0 -85 31.5 -128.5t91.5 -43.5q68 0 96.5 42.5t28.5 147.5v158q0 112 -27 158t-90 46q-32 0 -58 -16.5
t-46 -50.5h-160z" />
    <glyph glyph-name="six" unicode="6" horiz-adv-x="797" 
d="M518 487q0 85 -30.5 128.5t-90.5 43.5q-63 0 -93 -49t-30 -155v-125q0 -91 32 -139t91 -48q61 0 91 43t30 131v170zM709 1069v-55h-189v57q0 75 -29 113.5t-85 38.5q-67 0 -97 -48t-30 -155v-279q26 45 71 66.5t111 21.5q132 0 201 -108.5t69 -317.5q0 -210 -83.5 -321
t-241.5 -111q-171 0 -252.5 108.5t-81.5 334.5v544q0 222 79 329.5t242 107.5q150 0 233 -85.5t83 -240.5z" />
    <glyph glyph-name="seven" unicode="7" horiz-adv-x="797" 
d="M72 969v397h653v-205l-352 -1161h-211l356 1180h-268v-211h-178z" />
    <glyph glyph-name="eight" unicode="8" horiz-adv-x="797" 
d="M520 332v112q0 93 -30.5 139t-92.5 46q-60 0 -90.5 -46.5t-30.5 -138.5v-112q0 -100 29.5 -146.5t91.5 -46.5q63 0 93 47t30 146zM512 965v102q0 80 -29 120t-86 40q-56 0 -84 -40t-28 -120v-102q0 -84 27.5 -124t84.5 -40t86 41t29 123zM518 715q97 -8 150 -96.5
t53 -243.5q0 -207 -79 -305.5t-245 -98.5q-162 0 -242.5 96t-80.5 289q0 168 52 258.5t152 100.5q-99 12 -146.5 85.5t-47.5 217.5q0 192 76.5 284.5t236.5 92.5q161 0 238.5 -92.5t77.5 -284.5q0 -144 -47.5 -217.5t-147.5 -85.5z" />
    <glyph glyph-name="nine" unicode="9" horiz-adv-x="797" 
d="M276 879q0 -85 31 -128.5t90 -43.5q65 0 94 48t29 156v125q0 93 -30.5 140t-90.5 47q-61 0 -92 -44t-31 -130v-170zM86 352h188v-57q0 -75 29 -113.5t86 -38.5q68 0 97.5 46.5t29.5 156.5v279q-32 -47 -74 -68.5t-98 -21.5q-141 0 -211 108t-70 326q0 204 85.5 315
t242.5 111q165 0 248.5 -107t83.5 -317v-563q0 -225 -79.5 -331t-246.5 -106q-148 0 -229.5 83t-81.5 235v63z" />
    <glyph glyph-name="colon" unicode=":" horiz-adv-x="434" 
d="M217 229q51 0 87 -36t36 -87q0 -50 -36.5 -86t-86.5 -36q-49 0 -86 36.5t-37 85.5q0 50 36.5 86.5t86.5 36.5zM217 793q52 0 87.5 -36t35.5 -87q0 -50 -36.5 -86.5t-86.5 -36.5q-49 0 -86 37t-37 86t36.5 86t86.5 37z" />
    <glyph glyph-name="semicolon" unicode=";" horiz-adv-x="434" 
d="M141 229h174l-129 -426h-174zM227 793q52 0 87.5 -36t35.5 -87q0 -50 -36.5 -86.5t-86.5 -36.5q-49 0 -86 37t-37 86t36.5 86t86.5 37z" />
    <glyph glyph-name="less" unicode="&#x3c;" horiz-adv-x="1706" 
d="M1442 1176v-185l-934 -381l934 -381v-182l-1178 483v160z" />
    <glyph glyph-name="equal" unicode="=" horiz-adv-x="1706" 
d="M254 487h1198v-165h-1198v165zM254 901h1198v-168h-1198v168z" />
    <glyph glyph-name="greater" unicode="&#x3e;" horiz-adv-x="1706" 
d="M264 1176l1178 -486v-160l-1178 -483v182l934 381l-934 381v185z" />
    <glyph glyph-name="question" unicode="?" horiz-adv-x="811" 
d="M348 217q52 0 87.5 -36t35.5 -89q0 -50 -36.5 -85.5t-88.5 -35.5q-48 0 -84.5 37t-36.5 86q0 50 36.5 86.5t86.5 36.5zM437 688l-1 -266h-180v407h33q128 0 185.5 52.5t57.5 169.5q0 95 -37.5 144.5t-109.5 49.5q-62 0 -98.5 -42.5t-36.5 -115.5h-182v43q0 137 85 215
t234 78q162 0 247 -95t85 -277q0 -166 -73 -259.5t-209 -103.5z" />
    <glyph glyph-name="at" unicode="@" horiz-adv-x="2048" 
d="M1174 283q-55 -87 -128 -127.5t-176 -40.5q-152 0 -232.5 86.5t-80.5 249.5q0 233 138 395t333 162q89 0 149 -34.5t99 -107.5l55 107h154l-148 -586q-1 -5 -2 -12q-6 -28 -6 -37q0 -38 26.5 -61t69.5 -23q51 0 107.5 30.5t105.5 84.5q72 76 110 177.5t38 215.5
q0 253 -187 411t-489 158q-138 0 -256 -31t-215 -94q-181 -113 -279 -291t-98 -395q0 -312 209.5 -499t558.5 -187q166 0 323.5 49t291.5 142l67 -99q-149 -113 -318.5 -170t-355.5 -57q-192 0 -351 48t-281 142q-155 118 -231.5 275.5t-76.5 357.5q0 165 52 313.5
t153 272.5q147 179 353.5 272t459.5 93q166 0 315 -45.5t255 -127.5q132 -102 198 -235.5t66 -300.5q0 -162 -65 -302t-185 -237q-69 -55 -150 -83.5t-168 -28.5q-106 0 -157 40.5t-51 125.5v4zM1233 707q-14 84 -61.5 130t-122.5 46q-127 0 -217.5 -128.5t-90.5 -310.5
q0 -98 45.5 -151t128.5 -53q90 0 163.5 66.5t99.5 172.5z" />
    <glyph glyph-name="A" unicode="A" horiz-adv-x="1100" 
d="M412 569h260l-127 568zM20 0v180h89l274 1034h-121v181h586v-181h-121l270 -1034h82v-180h-440v180h123l-55 234h-332l-58 -234h119v-180h-416z" />
    <glyph glyph-name="B" unicode="B" horiz-adv-x="1010" 
d="M399 174h121q97 0 138.5 45.5t41.5 151.5v114q0 93 -42 133.5t-138 40.5h-121v-485zM399 829h109q102 0 141 38t39 132v74q0 75 -39.5 111.5t-122.5 36.5h-127v-392zM51 0v180h115v1034h-115v181h498q185 0 274.5 -77.5t89.5 -236.5v-49q0 -125 -58 -195.5t-177 -91.5
q133 -19 194.5 -90.5t61.5 -205.5v-91q0 -185 -86.5 -271.5t-269.5 -86.5h-527z" />
    <glyph glyph-name="C" unicode="C" horiz-adv-x="885" 
d="M840 461v-58q0 -211 -99 -321.5t-288 -110.5q-192 0 -291 114.5t-99 336.5v512q0 242 86.5 364.5t258.5 122.5q73 0 132.5 -25.5t100.5 -76.5v76h176v-420h-190l-2 37q-7 107 -45 160t-109 53q-84 0 -124 -53.5t-40 -167.5v-615q0 -114 39.5 -166.5t124.5 -52.5
q82 0 123 55.5t41 165.5v70h205z" />
    <glyph glyph-name="D" unicode="D" horiz-adv-x="1036" 
d="M408 1217v-1039h45q147 0 211.5 77t64.5 253v418q0 164 -57.5 227.5t-204.5 63.5h-59zM51 1395h381q295 0 417 -109t122 -371v-368q0 -292 -115.5 -419.5t-378.5 -127.5h-426v180h115v1034h-115v181z" />
    <glyph glyph-name="E" unicode="E" 
d="M51 0v180h115v1034h-115v181h897v-394h-198v216h-342v-379h286v-201h-286v-459h342v250h198v-428h-897z" />
    <glyph glyph-name="F" unicode="F" horiz-adv-x="985" 
d="M51 0v180h115v1034h-115v181h910v-400h-199v222h-354v-379h286v-201h-286v-457h116v-180h-473z" />
    <glyph glyph-name="G" unicode="G" horiz-adv-x="887" 
d="M666 76q-49 -51 -110 -78t-126 -27q-178 0 -272.5 116t-94.5 335v539q0 226 88 343t257 117q73 0 132 -29.5t101 -86.5v90h168v-410h-182l-2 39q-5 102 -43 151.5t-111 49.5q-84 0 -124 -53.5t-40 -167.5v-617q0 -114 39 -165.5t125 -51.5q82 0 123 54.5t41 164.5v103
h-123v186h322v-678h-115z" />
    <glyph glyph-name="H" unicode="H" horiz-adv-x="1130" 
d="M51 1395h465v-181h-108v-374h313v374h-109v181h465v-181h-114v-1034h114v-180h-465v180h109v459h-313v-459h108v-180h-465v180h115v1034h-115v181z" />
    <glyph glyph-name="I" unicode="I" horiz-adv-x="575" 
d="M51 0v180h115v1034h-115v181h473v-181h-116v-1034h116v-180h-473z" />
    <glyph glyph-name="J" unicode="J" horiz-adv-x="575" 
d="M27 -248v207h28q72 0 98.5 29t26.5 110v1116h-114v181h471v-181h-115v-1105q0 -182 -85.5 -269.5t-264.5 -87.5h-45z" />
    <glyph glyph-name="K" unicode="K" horiz-adv-x="1096" 
d="M51 0v180h115v1034h-115v181h465v-181h-108v-477l342 477h-123v181h463v-181h-97l-340 -477l351 -557h92v-182h-467v182h110l-331 549v-549h108v-180h-465z" />
    <glyph glyph-name="L" unicode="L" horiz-adv-x="983" 
d="M51 0v180h115v1034h-115v181h473v-181h-116v-1036h333v258h201v-436h-891z" />
    <glyph glyph-name="M" unicode="M" horiz-adv-x="1348" 
d="M51 1395h432l191 -754l200 754h422v-181h-114v-1034h114v-180h-446v180h108l15 1018l-266 -983h-97l-248 983v-1018h109v-180h-420v180h115v1034h-115v181z" />
    <glyph glyph-name="N" unicode="N" horiz-adv-x="1145" 
d="M51 0v180h115v1034h-115v181h361l370 -955v774h-110v181h422v-181h-115v-1222h-207l-405 1036v-848h108v-180h-424z" />
    <glyph glyph-name="O" unicode="O" horiz-adv-x="922" 
d="M858 1004v-615q0 -206 -101 -312t-296 -106t-296.5 106t-101.5 312v615q0 205 101.5 311t296.5 106t296 -106t101 -311zM614 1018q0 108 -36.5 157.5t-116.5 49.5t-117 -49.5t-37 -157.5v-641q0 -108 37 -157.5t117 -49.5t116.5 49.5t36.5 157.5v641z" />
    <glyph glyph-name="P" unicode="P" horiz-adv-x="997" 
d="M408 752h100q117 0 158 37.5t41 144.5v123q0 89 -43.5 124.5t-159.5 35.5h-96v-465zM51 0v180h115v1034h-115v181h492q205 0 300 -81t95 -255v-144q0 -176 -81 -259t-253 -83h-196v-393h116v-180h-473z" />
    <glyph glyph-name="Q" unicode="Q" horiz-adv-x="922" 
d="M63 389v615q0 205 101.5 311t296.5 106t296 -106t101 -311v-615q0 -156 -58 -254.5t-173 -136.5l227 -240h-252l-194 215q-172 19 -258.5 123t-86.5 293zM307 377q0 -107 37 -157t117 -50q79 0 116 50t37 157v641q0 107 -37 157t-116 50q-80 0 -117 -50t-37 -157v-641z
" />
    <glyph glyph-name="R" unicode="R" horiz-adv-x="1075" 
d="M408 817h137q89 0 129.5 34t40.5 110v120q0 77 -39 106.5t-148 29.5h-120v-400zM51 0v180h115v1034h-115v181h494q225 0 315 -71t90 -243v-92q0 -127 -53 -186.5t-182 -77.5q132 -17 183.5 -65.5t51.5 -153.5v-326h115v-180h-350v496q0 86 -38 116.5t-147 30.5h-122v-463
h108v-180h-465z" />
    <glyph glyph-name="S" unicode="S" horiz-adv-x="872" 
d="M76 0v436h180q10 -128 65 -199t142 -71q66 0 105.5 40t39.5 107q0 51 -26.5 97.5t-85.5 99.5l-242 215q-87 76 -130.5 167.5t-43.5 197.5q0 143 87 237t220 94q66 0 125 -28.5t111 -83.5v86h170v-379h-172q-15 100 -65.5 157.5t-121.5 57.5q-56 0 -95.5 -40t-39.5 -97
q0 -43 25 -86.5t73 -85.5l258 -232q98 -86 140.5 -172.5t42.5 -195.5q0 -154 -95.5 -251.5t-244.5 -97.5q-77 0 -140 33t-118 103v-109h-164z" />
    <glyph glyph-name="T" unicode="T" horiz-adv-x="993" 
d="M238 0v180h137v1041h-158v-234h-166v408h891v-408h-168v234h-158v-1041h140v-180h-518z" />
    <glyph glyph-name="U" unicode="U" horiz-adv-x="1130" 
d="M166 352v862h-115v181h465v-181h-108v-849q0 -102 37.5 -148.5t119.5 -46.5q81 0 118.5 46.5t37.5 148.5v849h-109v181h465v-181h-114v-862q0 -186 -101.5 -283.5t-296.5 -97.5t-297 97.5t-102 283.5z" />
    <glyph glyph-name="V" unicode="V" horiz-adv-x="991" 
d="M418 -14l-316 1228h-79v181h411v-181h-94l168 -821l174 821h-100v181h393v-181h-86l-301 -1228h-170z" />
    <glyph glyph-name="W" unicode="W" horiz-adv-x="1401" 
d="M367 -14l-275 1228h-84v181h406v-181h-101l154 -786l166 786h-105v181h361v-181h-101l162 -786l164 786h-102v181h381v-181h-80l-283 -1228h-145l-187 862l-194 -862h-137z" />
    <glyph glyph-name="X" unicode="X" horiz-adv-x="997" 
d="M23 0v180h77l287 500l-287 534h-71v181h420v-181h-105l170 -321l180 321h-98v181h379v-181h-64l-290 -505l284 -529h66v-180h-418v180h106l-165 314l-179 -314h99v-180h-391z" />
    <glyph glyph-name="Y" unicode="Y" 
d="M25 1395h424v-181h-101l164 -452l186 452h-100v181h401v-181h-81l-300 -665v-369h115v-180h-471v180h115v377l-268 657h-84v181z" />
    <glyph glyph-name="Z" unicode="Z" horiz-adv-x="901" 
d="M49 0v193l557 1024h-350v-220h-197v398h787v-183l-563 -1034h360v268h199v-446h-793z" />
    <glyph glyph-name="bracketleft" unicode="[" horiz-adv-x="537" 
d="M137 -166v1561h400v-133h-201v-1297h201v-131h-400z" />
    <glyph glyph-name="backslash" unicode="\" horiz-adv-x="596" 
d="M528 -190l-577 1611h119l577 -1611h-119z" />
    <glyph glyph-name="bracketright" unicode="]" horiz-adv-x="537" 
d="M399 1395v-1561h-399v131h201v1297h-201v133h399z" />
    <glyph glyph-name="asciicircum" unicode="^" horiz-adv-x="2048" 
d="M915 1460h218l495 -561h-207l-397 397l-399 -397h-207z" />
    <glyph glyph-name="underscore" unicode="_" 
d="M0 -311h1024v-172h-1024v172z" />
    <glyph glyph-name="grave" unicode="`" 
d="M260 1382h215l178 -358h-121z" />
    <glyph glyph-name="a" unicode="a" horiz-adv-x="827" 
d="M279 315q0 -82 23 -119.5t73 -37.5q54 0 86.5 47t32.5 129v241q0 83 -28.5 123.5t-84.5 40.5q-53 0 -77.5 -39t-24.5 -122v-263zM510 102q-47 -60 -97.5 -89t-109.5 -29q-111 0 -170 90.5t-59 261.5v266q0 145 63.5 227t175.5 82q71 0 120.5 -29t88.5 -94v107h254v-164
h-78v-567h78v-164h-266v102z" />
    <glyph glyph-name="b" unicode="b" horiz-adv-x="815" 
d="M324 326q0 -88 27 -128t85 -40q52 0 77.5 36t25.5 111v287q0 72 -24 107.5t-73 35.5q-57 0 -87.5 -38.5t-30.5 -110.5v-260zM41 0v164h78v1065h-78v166h283v-580q40 49 87.5 73.5t102.5 24.5q109 0 169 -79.5t60 -225.5v-315q0 -149 -58 -229t-167 -80q-70 0 -122.5 28.5
t-96.5 89.5v-102h-258z" />
    <glyph glyph-name="c" unicode="c" horiz-adv-x="711" 
d="M666 332v-23q0 -153 -77 -239t-214 -86q-157 0 -237.5 98.5t-80.5 292.5v188q0 167 68 258.5t190 91.5q46 0 91 -21t92 -65v68h147v-301h-168q-6 75 -34 112t-78 37q-54 0 -78.5 -46t-24.5 -150v-182q0 -113 25.5 -162t83.5 -49q55 0 82.5 41.5t27.5 126.5v10h185z" />
    <glyph glyph-name="d" unicode="d" horiz-adv-x="815" 
d="M274 322q0 -87 24 -123.5t79 -36.5q56 0 85.5 45.5t29.5 132.5v242q0 78 -29 117.5t-86 39.5q-51 0 -77 -35.5t-26 -107.5v-274zM512 106q-43 -62 -95 -92t-118 -30q-109 0 -169 80t-60 227v317q0 147 60 226t169 79q56 0 105.5 -26t87.5 -76v418h-78v166h282v-1231h78
v-164h-262v106z" />
    <glyph glyph-name="e" unicode="e" horiz-adv-x="731" 
d="M262 543h219v49q0 74 -28 116t-76 42q-60 0 -87.5 -43.5t-27.5 -139.5v-24zM672 280q-10 -143 -89 -219.5t-218 -76.5q-152 0 -230 95.5t-78 280.5v162q0 182 82 286.5t221 104.5q152 0 233 -98.5t81 -284.5v-124h-412v-58q0 -100 28 -147t87 -47q48 0 75.5 31.5
t34.5 94.5h185z" />
    <glyph glyph-name="f" unicode="f" horiz-adv-x="479" 
d="M59 0v164h78v573h-78v158h78v258q0 125 52 183.5t163 58.5h90v-158q-58 0 -79 -23.5t-21 -93.5v-225h86v-158h-86v-573h78v-164h-361z" />
    <glyph glyph-name="g" unicode="g" horiz-adv-x="815" 
d="M274 322q0 -82 25 -121t76 -39q57 0 87 45t30 133v229q0 85 -30.5 127.5t-90.5 42.5q-48 0 -72.5 -36t-24.5 -107v-274zM696 23q0 -220 -83.5 -325.5t-256.5 -105.5q-74 0 -136 16.5t-111 49.5v182q49 -40 101 -59t112 -19q91 0 130.5 51.5t39.5 174.5v102
q-41 -56 -86 -81t-105 -25q-112 0 -171.5 79.5t-59.5 229.5v315q0 144 61 223.5t170 79.5q62 0 114.5 -30t100.5 -95v109h258v-164h-78v-708z" />
    <glyph glyph-name="h" unicode="h" horiz-adv-x="887" 
d="M41 1395h283v-596q46 55 102 83.5t119 28.5q110 0 160.5 -62t50.5 -200v-485h78v-164h-359v164h76v434q0 72 -21.5 103.5t-68.5 31.5q-49 0 -87 -28t-50 -74v-467h77v-164h-360v164h78v1065h-78v166z" />
    <glyph glyph-name="i" unicode="i" horiz-adv-x="461" 
d="M98 1055v217h244v-217h-244zM59 0v164h78v567h-78v164h283v-731h78v-164h-361z" />
    <glyph glyph-name="j" unicode="j" horiz-adv-x="428" 
d="M41 895h283v-977q0 -178 -68.5 -250t-237.5 -75v178q60 7 80.5 34t20.5 129v797h-78v164zM80 1272h244v-217h-244v217z" />
    <glyph glyph-name="k" unicode="k" horiz-adv-x="868" 
d="M41 0v164h78v1065h-78v166h283v-914l258 264h-127v150h399v-164h-72l-241 -248l262 -319h65v-164h-387v164h84l-241 309v-309h77v-164h-360z" />
    <glyph glyph-name="l" unicode="l" horiz-adv-x="442" 
d="M41 0v164h78v1065h-78v166h283v-1231h77v-164h-360z" />
    <glyph glyph-name="m" unicode="m" horiz-adv-x="1294" 
d="M733 793q49 59 105 88.5t120 29.5q107 0 156 -62.5t49 -199.5v-485h78v-164h-356v164h78v434q0 73 -19.5 104t-64.5 31q-47 0 -83 -28.5t-46 -73.5v-467h79v-164h-356v164h78v434q0 73 -19.5 104t-64.5 31q-47 0 -82.5 -28.5t-46.5 -73.5v-467h78v-164h-357v164h78v567
h-78v164h258v-117q53 68 112 100.5t128 32.5q66 0 111 -30t65 -88z" />
    <glyph glyph-name="n" unicode="n" horiz-adv-x="909" 
d="M776 649v-485h78v-164h-360v164h79v434q0 72 -19.5 103.5t-64.5 31.5q-48 0 -85 -21.5t-60 -62.5v-485h78v-164h-361v164h80v567h-80v164h265v-117q51 69 110 102t129 33q110 0 160.5 -63t50.5 -201z" />
    <glyph glyph-name="o" unicode="o" horiz-adv-x="735" 
d="M260 338q0 -94 26 -139t81 -45q54 0 81 45.5t27 138.5v221q0 93 -27 138.5t-81 45.5q-55 0 -81 -45t-26 -139v-221zM55 338v221q0 174 79.5 264t232.5 90q152 0 232.5 -90.5t80.5 -263.5v-221q0 -173 -80.5 -263.5t-232.5 -90.5q-153 0 -232.5 90t-79.5 264z" />
    <glyph glyph-name="p" unicode="p" horiz-adv-x="793" 
d="M535 602q0 67 -24.5 99t-74.5 32q-53 0 -81.5 -39.5t-28.5 -111.5v-250q0 -88 29 -132t87 -44q49 0 71 31t22 102v313zM739 662v-418q0 -125 -57 -192.5t-162 -67.5q-52 0 -102.5 25t-91.5 73v-297h77v-164h-358v164h78v948h-78v162h260v-109q47 64 101.5 95.5
t117.5 31.5q104 0 159.5 -65.5t55.5 -185.5z" />
    <glyph glyph-name="q" unicode="q" horiz-adv-x="815" 
d="M492 578q0 74 -31.5 113.5t-89.5 39.5q-48 0 -72.5 -36.5t-24.5 -106.5v-277q0 -83 24.5 -120t78.5 -37q55 0 85 45.5t30 130.5v248zM514 782v113h260v-164h-78v-946h78v-164h-360v164h78v297q-43 -49 -91.5 -73.5t-101.5 -24.5q-110 0 -169.5 79t-59.5 226v315
q0 147 62 227t175 80q65 0 115 -31t92 -98z" />
    <glyph glyph-name="r" unicode="r" horiz-adv-x="653" 
d="M582 913h57v-233q-27 6 -53 9t-49 3q-98 0 -146.5 -61.5t-48.5 -184.5v-282h100v-164h-391v164h86v567h-78v164h269v-160q45 89 108.5 133.5t145.5 44.5z" />
    <glyph glyph-name="s" unicode="s" horiz-adv-x="659" 
d="M57 0v311h150q12 -79 47.5 -122.5t89.5 -43.5q39 0 61.5 21t22.5 57q0 27 -16 50.5t-58 56.5l-180 139q-52 41 -80 97t-28 118q0 100 60 164.5t153 64.5q45 0 87.5 -20t84.5 -62v64h135v-266h-142q-17 67 -47 98t-75 31q-32 0 -52 -19.5t-20 -50.5q0 -21 13.5 -40
t51.5 -48l160 -125q71 -55 104 -115.5t33 -134.5q0 -106 -62 -173.5t-159 -67.5q-53 0 -98 21.5t-88 68.5v-74h-148z" />
    <glyph glyph-name="t" unicode="t" horiz-adv-x="461" 
d="M412 -10q-25 -2 -49.5 -3t-63.5 -1q-104 0 -142 42t-38 169v540h-78v158h78v324h205v-324h86v-158h-86v-493q0 -57 11 -69.5t56 -12.5h21v-172z" />
    <glyph glyph-name="u" unicode="u" horiz-adv-x="887" 
d="M53 895h283v-596q0 -75 20.5 -106t67.5 -31q51 0 89 28.5t50 75.5v465h-78v164h283v-731h78v-164h-264v117q-51 -68 -110 -100.5t-130 -32.5q-110 0 -160.5 62t-50.5 200v485h-78v164z" />
    <glyph glyph-name="v" unicode="v" horiz-adv-x="825" 
d="M332 -12l-252 743h-70v164h344v-164h-73l133 -457l147 457h-82v164h336v-164h-74l-266 -743h-143z" />
    <glyph glyph-name="w" unicode="w" horiz-adv-x="1169" 
d="M301 -12l-227 743h-64v164h332v-164h-70l119 -463l129 463h-67v164h286v-164h-73l127 -463l125 463h-72v164h313v-164h-63l-228 -743h-145l-141 516l-144 -516h-137z" />
    <glyph glyph-name="x" unicode="x" horiz-adv-x="731" 
d="M16 895h263v-125l100 -158l104 158v125h224v-164h-60l-174 -258l195 -309h53v-164h-260v135l-111 172l-114 -172v-135h-226v164h53l195 282l-180 285h-62v164z" />
    <glyph glyph-name="y" unicode="y" horiz-adv-x="825" 
d="M119 -379v164h90l100 270l-229 676h-70v164h344v-164h-73l133 -457l147 457h-82v164h336v-164h-74l-352 -946h96v-164h-366z" />
    <glyph glyph-name="z" unicode="z" horiz-adv-x="758" 
d="M37 0v168l446 575h-264v-131h-164v283h650v-170l-443 -573h289v151h154v-303h-668z" />
    <glyph glyph-name="braceleft" unicode="{" 
d="M874 1477v-179q-8 0 -24 1t-23 1q-109 0 -147.5 -41.5t-38.5 -173.5v-241q0 -155 -44 -220.5t-159 -93.5q114 -27 158.5 -92.5t44.5 -220.5v-240q0 -132 39.5 -174.5t148.5 -42.5q7 0 22 1t23 1v-176h-63q-102 0 -165.5 12t-106.5 37q-57 34 -80 96t-23 203v248
q0 144 -52.5 203t-178.5 59q-7 0 -21.5 -1t-21.5 -1v179q7 0 21.5 -1.5t21.5 -1.5q126 0 178.5 59t52.5 202v247q0 145 23 206.5t80 94.5q44 27 109 38.5t181 11.5h45z" />
    <glyph glyph-name="bar" unicode="|" 
d="M424 1565h178v-2048h-178v2048z" />
    <glyph glyph-name="braceright" unicode="}" 
d="M152 1477h45q115 0 179.5 -11.5t108.5 -38.5q57 -33 80 -95t23 -206v-247q0 -144 52 -202.5t179 -58.5q6 0 21 1.5t22 1.5v-179q-7 0 -21.5 1t-21.5 1q-126 0 -178.5 -59t-52.5 -203v-248q0 -143 -23 -204t-80 -95q-43 -26 -108 -37.5t-180 -11.5h-45v176q8 0 23 -1
t22 -1q109 0 147.5 42t38.5 175v240q0 153 45 219t160 94q-115 28 -160 93.5t-45 220.5v241q0 132 -38 173.5t-146 41.5q-7 0 -23 -1t-24 -1v179z" />
    <glyph glyph-name="asciitilde" unicode="~" horiz-adv-x="1706" 
d="M1530 784v-184q-103 -71 -197.5 -106t-183.5 -35q-44 0 -92.5 8.5t-98.5 26.5q-25 8 -76 26q-212 74 -319 74q-82 0 -174 -38t-211 -122v187q106 72 202 107.5t185 35.5q62 0 125.5 -12t168.5 -48q13 -4 42 -15q164 -58 250 -58q85 0 177 37t202 116z" />
    <glyph glyph-name="Adieresis" unicode="&#xc4;" horiz-adv-x="1100" 
d="M412 569h260l-127 568zM20 0v180h89l274 1034h-121v181h586v-181h-121l270 -1034h82v-180h-440v180h123l-55 234h-332l-58 -234h119v-180h-416zM617 1591v230h206v-230h-206zM279 1591v230h206v-230h-206z" />
    <glyph glyph-name="Aring" unicode="&#xc5;" horiz-adv-x="1100" 
d="M547 1849q-55 0 -93 -37.5t-38 -93.5q0 -55 38 -93t93 -38t92 38t37 93q0 56 -37 93.5t-92 37.5zM545 1976q109 0 184.5 -75t75.5 -183t-75.5 -183t-184.5 -75t-182.5 74.5t-73.5 183.5q0 110 73.5 184t182.5 74zM412 569h260l-127 568zM20 0v180h89l274 1034h-121v181
h586v-181h-121l270 -1034h82v-180h-440v180h123l-55 234h-332l-58 -234h119v-180h-416z" />
    <glyph glyph-name="Ccedilla" unicode="&#xc7;" horiz-adv-x="885" 
d="M840 461v-58q0 -211 -99 -321.5t-288 -110.5q-192 0 -291 114.5t-99 336.5v512q0 242 86.5 364.5t258.5 122.5q73 0 132.5 -25.5t100.5 -76.5v76h176v-420h-190l-2 37q-7 107 -45 160t-109 53q-84 0 -124 -53.5t-40 -167.5v-615q0 -114 39.5 -166.5t124.5 -52.5
q82 0 123 55.5t41 165.5v70h205zM379 0h90v-96h20q110 0 168.5 -47t58.5 -136q0 -97 -64.5 -145.5t-195.5 -48.5q-50 0 -115.5 11t-142.5 32v111q85 -21 148.5 -31t105.5 -10q55 0 82 18.5t27 56.5q0 46 -31 66t-102 20q-19 0 -29.5 -0.5t-19.5 -1.5v201z" />
    <glyph glyph-name="Eacute" unicode="&#xc9;" 
d="M51 0v180h115v1034h-115v181h897v-394h-198v216h-342v-379h286v-201h-286v-459h342v250h198v-428h-897zM551 1892h215l-272 -358h-123z" />
    <glyph glyph-name="Ntilde" unicode="&#xd1;" horiz-adv-x="1145" 
d="M51 0v180h115v1034h-115v181h361l370 -955v774h-110v181h422v-181h-115v-1222h-207l-405 1036v-848h108v-180h-424zM852 1833q-22 -116 -67.5 -172.5t-117.5 -56.5q-14 0 -29 2.5t-34 7.5l-85 29q-11 4 -22.5 6t-25.5 2q-34 0 -53 -16.5t-31 -55.5h-93q20 110 66.5 166.5
t116.5 56.5q15 0 32 -3t33 -9l87 -27q14 -5 26 -7.5t22 -2.5q31 0 50 18.5t32 61.5h93z" />
    <glyph glyph-name="Odieresis" unicode="&#xd6;" horiz-adv-x="922" 
d="M858 1004v-615q0 -206 -101 -312t-296 -106t-296.5 106t-101.5 312v615q0 205 101.5 311t296.5 106t296 -106t101 -311zM614 1018q0 108 -36.5 157.5t-116.5 49.5t-117 -49.5t-37 -157.5v-641q0 -108 37 -157.5t117 -49.5t116.5 49.5t36.5 157.5v641zM527 1591v230h206
v-230h-206zM189 1591v230h206v-230h-206z" />
    <glyph glyph-name="Udieresis" unicode="&#xdc;" horiz-adv-x="1130" 
d="M166 352v862h-115v181h465v-181h-108v-849q0 -102 37.5 -148.5t119.5 -46.5q81 0 118.5 46.5t37.5 148.5v849h-109v181h465v-181h-114v-862q0 -186 -101.5 -283.5t-296.5 -97.5t-297 97.5t-102 283.5zM631 1591v230h206v-230h-206zM293 1591v230h206v-230h-206z" />
    <glyph glyph-name="aacute" unicode="&#xe1;" horiz-adv-x="827" 
d="M279 315q0 -82 23 -119.5t73 -37.5q54 0 86.5 47t32.5 129v241q0 83 -28.5 123.5t-84.5 40.5q-53 0 -77.5 -39t-24.5 -122v-263zM510 102q-47 -60 -97.5 -89t-109.5 -29q-111 0 -170 90.5t-59 261.5v266q0 145 63.5 227t175.5 82q71 0 120.5 -29t88.5 -94v107h254v-164
h-78v-567h78v-164h-266v102zM453 1382h215l-272 -358h-123z" />
    <glyph glyph-name="agrave" unicode="&#xe0;" horiz-adv-x="827" 
d="M279 315q0 -82 23 -119.5t73 -37.5q54 0 86.5 47t32.5 129v241q0 83 -28.5 123.5t-84.5 40.5q-53 0 -77.5 -39t-24.5 -122v-263zM510 102q-47 -60 -97.5 -89t-109.5 -29q-111 0 -170 90.5t-59 261.5v266q0 145 63.5 227t175.5 82q71 0 120.5 -29t88.5 -94v107h254v-164
h-78v-567h78v-164h-266v102zM162 1382h215l178 -358h-121z" />
    <glyph glyph-name="acircumflex" unicode="&#xe2;" horiz-adv-x="827" 
d="M279 315q0 -82 23 -119.5t73 -37.5q54 0 86.5 47t32.5 129v241q0 83 -28.5 123.5t-84.5 40.5q-53 0 -77.5 -39t-24.5 -122v-263zM510 102q-47 -60 -97.5 -89t-109.5 -29q-111 0 -170 90.5t-59 261.5v266q0 145 63.5 227t175.5 82q71 0 120.5 -29t88.5 -94v107h254v-164
h-78v-567h78v-164h-266v102zM140 1024l174 358h200l174 -358h-120l-154 215l-154 -215h-120z" />
    <glyph glyph-name="adieresis" unicode="&#xe4;" horiz-adv-x="827" 
d="M279 315q0 -82 23 -119.5t73 -37.5q54 0 86.5 47t32.5 129v241q0 83 -28.5 123.5t-84.5 40.5q-53 0 -77.5 -39t-24.5 -122v-263zM510 102q-47 -60 -97.5 -89t-109.5 -29q-111 0 -170 90.5t-59 261.5v266q0 145 63.5 227t175.5 82q71 0 120.5 -29t88.5 -94v107h254v-164
h-78v-567h78v-164h-266v102zM480 1081v230h206v-230h-206zM142 1081v230h206v-230h-206z" />
    <glyph glyph-name="atilde" unicode="&#xe3;" horiz-adv-x="827" 
d="M279 315q0 -82 23 -119.5t73 -37.5q54 0 86.5 47t32.5 129v241q0 83 -28.5 123.5t-84.5 40.5q-53 0 -77.5 -39t-24.5 -122v-263zM510 102q-47 -60 -97.5 -89t-109.5 -29q-111 0 -170 90.5t-59 261.5v266q0 145 63.5 227t175.5 82q71 0 120.5 -29t88.5 -94v107h254v-164
h-78v-567h78v-164h-266v102zM693 1323q-22 -116 -67.5 -172.5t-117.5 -56.5q-14 0 -29 2.5t-34 7.5l-85 29q-11 4 -22.5 6t-25.5 2q-34 0 -53 -16.5t-31 -55.5h-93q20 110 66.5 166.5t116.5 56.5q15 0 32 -3t33 -9l87 -27q14 -5 26 -7.5t22 -2.5q31 0 50 18.5t32 61.5h93z
" />
    <glyph glyph-name="aring" unicode="&#xe5;" horiz-adv-x="827" 
d="M455 1368q-56 0 -93.5 -38t-37.5 -93t37.5 -93t93.5 -38q54 0 91.5 38t37.5 93q0 54 -38 92.5t-91 38.5zM455 1495q109 0 183.5 -74.5t74.5 -183.5t-74.5 -183.5t-183.5 -74.5t-183.5 74.5t-74.5 183.5t74.5 183.5t183.5 74.5zM279 315q0 -82 23 -119.5t73 -37.5
q54 0 86.5 47t32.5 129v241q0 83 -28.5 123.5t-84.5 40.5q-53 0 -77.5 -39t-24.5 -122v-263zM510 102q-47 -60 -97.5 -89t-109.5 -29q-111 0 -170 90.5t-59 261.5v266q0 145 63.5 227t175.5 82q71 0 120.5 -29t88.5 -94v107h254v-164h-78v-567h78v-164h-266v102z" />
    <glyph glyph-name="ccedilla" unicode="&#xe7;" horiz-adv-x="711" 
d="M666 332v-23q0 -153 -77 -239t-214 -86q-157 0 -237.5 98.5t-80.5 292.5v188q0 167 68 258.5t190 91.5q46 0 91 -21t92 -65v68h147v-301h-168q-6 75 -34 112t-78 37q-54 0 -78.5 -46t-24.5 -150v-182q0 -113 25.5 -162t83.5 -49q55 0 82.5 41.5t27.5 126.5v10h185zM293 0
h90v-96h20q110 0 168.5 -47t58.5 -136q0 -97 -64.5 -145.5t-195.5 -48.5q-50 0 -115.5 11t-142.5 32v111q85 -21 148.5 -31t105.5 -10q55 0 82 18.5t27 56.5q0 46 -31 66t-102 20q-19 0 -29.5 -0.5t-19.5 -1.5v201z" />
    <glyph glyph-name="eacute" unicode="&#xe9;" horiz-adv-x="731" 
d="M262 543h219v49q0 74 -28 116t-76 42q-60 0 -87.5 -43.5t-27.5 -139.5v-24zM672 280q-10 -143 -89 -219.5t-218 -76.5q-152 0 -230 95.5t-78 280.5v162q0 182 82 286.5t221 104.5q152 0 233 -98.5t81 -284.5v-124h-412v-58q0 -100 28 -147t87 -47q48 0 75.5 31.5
t34.5 94.5h185zM406 1382h215l-272 -358h-123z" />
    <glyph glyph-name="egrave" unicode="&#xe8;" horiz-adv-x="731" 
d="M262 543h219v49q0 74 -28 116t-76 42q-60 0 -87.5 -43.5t-27.5 -139.5v-24zM672 280q-10 -143 -89 -219.5t-218 -76.5q-152 0 -230 95.5t-78 280.5v162q0 182 82 286.5t221 104.5q152 0 233 -98.5t81 -284.5v-124h-412v-58q0 -100 28 -147t87 -47q48 0 75.5 31.5
t34.5 94.5h185zM115 1382h215l178 -358h-121z" />
    <glyph glyph-name="ecircumflex" unicode="&#xea;" horiz-adv-x="731" 
d="M262 543h219v49q0 74 -28 116t-76 42q-60 0 -87.5 -43.5t-27.5 -139.5v-24zM672 280q-10 -143 -89 -219.5t-218 -76.5q-152 0 -230 95.5t-78 280.5v162q0 182 82 286.5t221 104.5q152 0 233 -98.5t81 -284.5v-124h-412v-58q0 -100 28 -147t87 -47q48 0 75.5 31.5
t34.5 94.5h185zM93 1024l174 358h200l174 -358h-120l-154 215l-154 -215h-120z" />
    <glyph glyph-name="edieresis" unicode="&#xeb;" horiz-adv-x="731" 
d="M262 543h219v49q0 74 -28 116t-76 42q-60 0 -87.5 -43.5t-27.5 -139.5v-24zM672 280q-10 -143 -89 -219.5t-218 -76.5q-152 0 -230 95.5t-78 280.5v162q0 182 82 286.5t221 104.5q152 0 233 -98.5t81 -284.5v-124h-412v-58q0 -100 28 -147t87 -47q48 0 75.5 31.5
t34.5 94.5h185zM433 1081v230h206v-230h-206zM95 1081v230h206v-230h-206z" />
    <glyph glyph-name="iacute" unicode="&#xed;" horiz-adv-x="461" 
d="M59 0v164h78v567h-78v164h283v-731h78v-164h-361zM270 1382h215l-272 -358h-123z" />
    <glyph glyph-name="igrave" unicode="&#xec;" horiz-adv-x="461" 
d="M59 0v164h78v567h-78v164h283v-731h78v-164h-361zM-21 1382h215l178 -358h-121z" />
    <glyph glyph-name="icircumflex" unicode="&#xee;" horiz-adv-x="461" 
d="M59 0v164h78v567h-78v164h283v-731h78v-164h-361zM-43 1024l174 358h200l174 -358h-120l-154 215l-154 -215h-120z" />
    <glyph glyph-name="idieresis" unicode="&#xef;" horiz-adv-x="461" 
d="M59 0v164h78v567h-78v164h283v-731h78v-164h-361zM297 1081v230h206v-230h-206zM-41 1081v230h206v-230h-206z" />
    <glyph glyph-name="ntilde" unicode="&#xf1;" horiz-adv-x="909" 
d="M776 649v-485h78v-164h-360v164h79v434q0 72 -19.5 103.5t-64.5 31.5q-48 0 -85 -21.5t-60 -62.5v-485h78v-164h-361v164h80v567h-80v164h265v-117q51 69 110 102t129 33q110 0 160.5 -63t50.5 -201zM734 1323q-22 -116 -67.5 -172.5t-117.5 -56.5q-14 0 -29 2.5t-34 7.5
l-85 29q-11 4 -22.5 6t-25.5 2q-34 0 -53 -16.5t-31 -55.5h-93q20 110 66.5 166.5t116.5 56.5q15 0 32 -3t33 -9l87 -27q14 -5 26 -7.5t22 -2.5q31 0 50 18.5t32 61.5h93z" />
    <glyph glyph-name="oacute" unicode="&#xf3;" horiz-adv-x="735" 
d="M260 338q0 -94 26 -139t81 -45q54 0 81 45.5t27 138.5v221q0 93 -27 138.5t-81 45.5q-55 0 -81 -45t-26 -139v-221zM55 338v221q0 174 79.5 264t232.5 90q152 0 232.5 -90.5t80.5 -263.5v-221q0 -173 -80.5 -263.5t-232.5 -90.5q-153 0 -232.5 90t-79.5 264zM408 1382
h215l-272 -358h-123z" />
    <glyph glyph-name="ograve" unicode="&#xf2;" horiz-adv-x="735" 
d="M260 338q0 -94 26 -139t81 -45q54 0 81 45.5t27 138.5v221q0 93 -27 138.5t-81 45.5q-55 0 -81 -45t-26 -139v-221zM55 338v221q0 174 79.5 264t232.5 90q152 0 232.5 -90.5t80.5 -263.5v-221q0 -173 -80.5 -263.5t-232.5 -90.5q-153 0 -232.5 90t-79.5 264zM117 1382
h215l178 -358h-121z" />
    <glyph glyph-name="ocircumflex" unicode="&#xf4;" horiz-adv-x="735" 
d="M260 338q0 -94 26 -139t81 -45q54 0 81 45.5t27 138.5v221q0 93 -27 138.5t-81 45.5q-55 0 -81 -45t-26 -139v-221zM55 338v221q0 174 79.5 264t232.5 90q152 0 232.5 -90.5t80.5 -263.5v-221q0 -173 -80.5 -263.5t-232.5 -90.5q-153 0 -232.5 90t-79.5 264zM95 1024
l174 358h200l174 -358h-120l-154 215l-154 -215h-120z" />
    <glyph glyph-name="odieresis" unicode="&#xf6;" horiz-adv-x="735" 
d="M260 338q0 -94 26 -139t81 -45q54 0 81 45.5t27 138.5v221q0 93 -27 138.5t-81 45.5q-55 0 -81 -45t-26 -139v-221zM55 338v221q0 174 79.5 264t232.5 90q152 0 232.5 -90.5t80.5 -263.5v-221q0 -173 -80.5 -263.5t-232.5 -90.5q-153 0 -232.5 90t-79.5 264zM435 1081
v230h206v-230h-206zM97 1081v230h206v-230h-206z" />
    <glyph glyph-name="otilde" unicode="&#xf5;" horiz-adv-x="735" 
d="M260 338q0 -94 26 -139t81 -45q54 0 81 45.5t27 138.5v221q0 93 -27 138.5t-81 45.5q-55 0 -81 -45t-26 -139v-221zM55 338v221q0 174 79.5 264t232.5 90q152 0 232.5 -90.5t80.5 -263.5v-221q0 -173 -80.5 -263.5t-232.5 -90.5q-153 0 -232.5 90t-79.5 264zM648 1323
q-22 -116 -67.5 -172.5t-117.5 -56.5q-14 0 -29 2.5t-34 7.5l-85 29q-11 4 -22.5 6t-25.5 2q-34 0 -53 -16.5t-31 -55.5h-93q20 110 66.5 166.5t116.5 56.5q15 0 32 -3t33 -9l87 -27q14 -5 26 -7.5t22 -2.5q31 0 50 18.5t32 61.5h93z" />
    <glyph glyph-name="uacute" unicode="&#xfa;" horiz-adv-x="887" 
d="M53 895h283v-596q0 -75 20.5 -106t67.5 -31q51 0 89 28.5t50 75.5v465h-78v164h283v-731h78v-164h-264v117q-51 -68 -110 -100.5t-130 -32.5q-110 0 -160.5 62t-50.5 200v485h-78v164zM483 1382h215l-272 -358h-123z" />
    <glyph glyph-name="ugrave" unicode="&#xf9;" horiz-adv-x="887" 
d="M53 895h283v-596q0 -75 20.5 -106t67.5 -31q51 0 89 28.5t50 75.5v465h-78v164h283v-731h78v-164h-264v117q-51 -68 -110 -100.5t-130 -32.5q-110 0 -160.5 62t-50.5 200v485h-78v164zM192 1382h215l178 -358h-121z" />
    <glyph glyph-name="ucircumflex" unicode="&#xfb;" horiz-adv-x="887" 
d="M53 895h283v-596q0 -75 20.5 -106t67.5 -31q51 0 89 28.5t50 75.5v465h-78v164h283v-731h78v-164h-264v117q-51 -68 -110 -100.5t-130 -32.5q-110 0 -160.5 62t-50.5 200v485h-78v164zM170 1024l174 358h200l174 -358h-120l-154 215l-154 -215h-120z" />
    <glyph glyph-name="udieresis" unicode="&#xfc;" horiz-adv-x="887" 
d="M53 895h283v-596q0 -75 20.5 -106t67.5 -31q51 0 89 28.5t50 75.5v465h-78v164h283v-731h78v-164h-264v117q-51 -68 -110 -100.5t-130 -32.5q-110 0 -160.5 62t-50.5 200v485h-78v164zM510 1081v230h206v-230h-206zM172 1081v230h206v-230h-206z" />
    <glyph glyph-name="dagger" unicode="&#x2020;" horiz-adv-x="977" 
d="M301 1395h373v-125h-113v-385h168v104h135v-344h-135v105h-168v-1031h-145v1031h-170v-105h-133v344h133v-104h170v385h-115v125z" />
    <glyph glyph-name="degree" unicode="&#xb0;" horiz-adv-x="674" 
d="M338 1350q-77 0 -131.5 -54t-54.5 -131q0 -76 54.5 -131t131.5 -55t130.5 54.5t53.5 131.5t-53.5 131t-130.5 54zM338 1460q121 0 208 -87t87 -210q0 -121 -87 -208t-210 -87t-208 85.5t-85 209.5q0 125 86 211t209 86z" />
    <glyph glyph-name="cent" unicode="&#xa2;" horiz-adv-x="797" 
d="M473 711q-19 17 -40 25.5t-44 8.5q-65 0 -90 -53.5t-25 -271.5q0 -87 5.5 -129.5t17.5 -71.5zM606 1104h74l-70 -207h74v-309h-180l-154 -428q13 -5 27.5 -7.5t32.5 -2.5q62 0 91 42t29 134v10h175v-19q0 -163 -75 -249t-216 -86q-33 0 -61.5 5t-55.5 15l-84 -248h-72
l97 277q-83 48 -120.5 150.5t-37.5 283.5q0 237 63 342.5t203 105.5q54 0 97.5 -19t74.5 -56z" />
    <glyph glyph-name="sterling" unicode="&#xa3;" horiz-adv-x="797" 
d="M733 997h-182v72q0 85 -29 123.5t-92 38.5q-53 0 -83 -40.5t-30 -113.5q0 -50 12.5 -128.5t37.5 -184.5h221v-152h-203q0 -4 1 -13q3 -59 3 -83q0 -108 -18.5 -191t-55.5 -137q24 -22 57.5 -33.5t73.5 -11.5q70 0 102 49t32 154v21l170 -1q1 -12 1.5 -25.5t0.5 -41.5
q0 -172 -65.5 -251t-207.5 -79q-72 0 -134.5 22t-108.5 64q-36 -29 -76.5 -49t-87.5 -33v181q66 43 99.5 123.5t33.5 195.5q0 36 -2 70.5t-6 68.5h-125v152h100q-25 101 -37 178t-12 133q0 149 80.5 233.5t222.5 84.5q157 0 232 -82.5t75 -255.5v-58z" />
    <glyph glyph-name="section" unicode="&#xa7;" horiz-adv-x="891" 
d="M424 760q-22 25 -44.5 37t-47.5 12q-47 0 -76 -27.5t-29 -72.5q0 -27 12.5 -56.5t34.5 -54.5l189 -215q29 -33 55 -46t57 -13q45 0 74 26.5t29 67.5q0 54 -66 127l-1 1zM524 1395h201v-320h-137v185h-66q-80 0 -121 -26.5t-41 -78.5q0 -37 29.5 -85t108.5 -136l219 -250
q68 -77 94.5 -134t26.5 -118q0 -99 -58.5 -157.5t-164.5 -67.5q55 -63 81.5 -122.5t26.5 -119.5q0 -112 -81 -179t-218 -67h-252v318h137v-182h74q86 0 128 26t42 80q0 35 -21 74t-75 100l-269 305q-60 69 -91 134t-31 124q0 95 61 157.5t162 70.5q-46 57 -69 113.5
t-23 113.5q0 121 82 181.5t245 60.5z" />
    <glyph glyph-name="bullet" unicode="&#x2022;" horiz-adv-x="1208" 
d="M307 762q0 123 87 209t210 86q122 0 208.5 -86.5t86.5 -208.5t-87.5 -209.5t-209.5 -87.5q-123 0 -209 87t-86 210z" />
    <glyph glyph-name="paragraph" unicode="&#xb6;" 
d="M969 1479v-99h-117v-1380h-129v1380h-168v-1380h-131v784q-168 6 -268.5 101t-100.5 245q0 158 107 253.5t284 95.5h523z" />
    <glyph glyph-name="germandbls" unicode="&#xdf;" horiz-adv-x="901" 
d="M41 0v164h78v854q0 189 81 283t244 94q137 0 215 -80t78 -219v-88q0 -82 -35.5 -139.5t-109.5 -94.5q111 -28 169 -112t58 -218v-86q0 -176 -71.5 -275t-198.5 -99q-37 0 -66 6.5t-51 19.5l25 145q16 -4 30.5 -6t30.5 -2q50 0 72 49t22 160v103q0 121 -38.5 175
t-124.5 54q-6 0 -16 -1t-15 -1v145q68 5 97.5 40t29.5 114v90q0 77 -26.5 113.5t-82.5 36.5q-55 0 -83.5 -39.5t-28.5 -116.5v-1069h-283z" />
    <glyph glyph-name="registered" unicode="&#xae;" horiz-adv-x="1706" 
d="M729 1047v-261h117q100 0 146 30.5t46 96.5q0 69 -48 101.5t-152 32.5h-109zM551 1159h319q173 0 262 -57t89 -168q0 -91 -48 -150.5t-137 -78.5l185 -375h-199l-164 346h-129v-346h-178v829zM854 1362q-129 0 -240 -45.5t-200 -134.5q-92 -94 -141.5 -210t-49.5 -241
t47 -238.5t136 -203.5q90 -91 204 -140t234 -49q130 0 246.5 47t209.5 138q89 86 137 198.5t48 237.5q0 133 -45.5 247.5t-134.5 205.5q-93 92 -207.5 140t-243.5 48zM852 1470q153 0 288.5 -56t241.5 -165q103 -104 157 -236.5t54 -281.5q0 -153 -55.5 -287t-161.5 -237
q-108 -105 -243 -161t-281 -56q-147 0 -282.5 57.5t-241.5 165.5q-105 106 -160 239t-55 279q0 147 57.5 284t165.5 245q104 104 234.5 157t281.5 53z" />
    <glyph glyph-name="copyright" unicode="&#xa9;" horiz-adv-x="1706" 
d="M1206 903h-166q-10 74 -60 114t-130 40q-99 0 -155 -86.5t-56 -239.5q0 -152 57.5 -234.5t163.5 -82.5q80 0 129 43.5t60 124.5h165q-7 -135 -106.5 -217t-253.5 -82q-183 0 -290 119t-107 323q0 208 109.5 331.5t291.5 123.5q147 0 243 -77t105 -200zM854 1362
q-130 0 -243 -46.5t-201 -135.5q-90 -92 -138.5 -208t-48.5 -241q0 -126 48 -240t139 -204q90 -91 204.5 -139t239.5 -48t240 48.5t209 140.5q89 88 135.5 200.5t46.5 241.5t-47 243.5t-135 203.5q-91 90 -205 137t-244 47zM852 1470q152 0 286 -55t240 -162
q105 -105 160 -238.5t55 -283.5q0 -153 -54.5 -286t-158.5 -234q-108 -107 -244.5 -164t-283.5 -57q-146 0 -280 56.5t-240 162.5q-107 106 -163 240.5t-56 281.5q0 145 57 280.5t164 243.5q105 107 235.5 161t282.5 54z" />
    <glyph glyph-name="trademark" unicode="&#x2122;" horiz-adv-x="1706" 
d="M809 1460h170l141 -360l133 360h170v-542h-114v428l-160 -428h-59l-166 428v-428h-115v542zM225 1460h467v-94h-168v-448h-129v448h-170v94z" />
    <glyph glyph-name="acute" unicode="&#xb4;" 
d="M551 1382h215l-272 -358h-123z" />
    <glyph glyph-name="dieresis" unicode="&#xa8;" 
d="M578 1081v230h206v-230h-206zM240 1081v230h206v-230h-206z" />
    <glyph glyph-name="notequal" unicode="&#x2260;" horiz-adv-x="1706" 
d="M1204 1212l123 -100l-170 -215h295v-162h-403l-197 -250h600v-161h-707l-249 -314l-123 99l170 215h-289v161h393l199 250h-592v162h700z" />
    <glyph glyph-name="AE" unicode="&#xc6;" horiz-adv-x="1569" 
d="M444 647h273v582h-39zM-47 0v180h86l428 1034h-133v181h1153v-394h-197v216h-332v-379h267v-201h-267v-459h334v250h201v-428h-891v180h115v314h-336l-127 -314h121v-180h-422z" />
    <glyph glyph-name="Oslash" unicode="&#xd8;" horiz-adv-x="922" 
d="M330 238q20 -34 52.5 -51t78.5 -17q80 0 116.5 49.5t36.5 157.5v612zM588 1159q-19 33 -51 49.5t-76 16.5q-80 0 -117 -49.5t-37 -157.5v-594zM739 1565h123l-100 -252q49 -57 72.5 -132t23.5 -177v-615q0 -206 -101 -312t-296 -106q-64 0 -114.5 10.5t-94.5 32.5
l-82 -204h-123l113 278q-49 51 -73 124.5t-24 176.5v615q0 205 101.5 311t296.5 106q60 0 111 -10t96 -31z" />
    <glyph glyph-name="infinity" unicode="&#x221e;" horiz-adv-x="1706" 
d="M928 559q45 -81 109.5 -122.5t146.5 -41.5q97 0 159 61.5t62 157.5q0 95 -57 158.5t-142 63.5q-78 0 -142 -63.5t-136 -213.5zM780 662q-46 81 -111 123t-145 42q-98 0 -159.5 -62t-61.5 -159q0 -94 56.5 -156.5t140.5 -62.5q80 0 144.5 62.5t135.5 212.5zM862 471
q-71 -135 -148.5 -197.5t-172.5 -62.5q-137 0 -232.5 114.5t-95.5 284.5q0 179 85 289.5t220 110.5q93 0 168.5 -60t157.5 -200q71 139 149.5 200.5t184.5 61.5q127 0 222 -116t95 -284q0 -178 -84.5 -288.5t-220.5 -110.5q-92 0 -166.5 57.5t-161.5 200.5z" />
    <glyph glyph-name="plusminus" unicode="&#xb1;" horiz-adv-x="1706" 
d="M254 182h1198v-168h-1198v168zM768 1206h170v-334h514v-165h-514v-334h-170v334h-514v165h514v334z" />
    <glyph glyph-name="lessequal" unicode="&#x2264;" horiz-adv-x="1706" 
d="M260 178h1186v-166h-1186v166zM1446 1223v-176l-889 -287l889 -287v-176l-1186 389v145z" />
    <glyph glyph-name="greaterequal" unicode="&#x2265;" horiz-adv-x="1706" 
d="M260 178h1188v-166h-1188v166zM260 1223l1186 -392v-145l-1186 -389v176l891 287l-891 287v176z" />
    <glyph glyph-name="yen" unicode="&#xa5;" horiz-adv-x="891" 
d="M223 0v180h115v371l-12 33h-279v102h234l-52 129h-182v105h139l-102 266h-84v180h381v-180h-98l159 -471l191 471h-96v180h354v-180h-80l-121 -266h154v-105h-201l-57 -129h258v-102h-307l-11 -33v-371h115v-180h-418z" />
    <glyph glyph-name="mu" unicode="&#xb5;" horiz-adv-x="1208" 
d="M205 1081h229l-125 -635q-6 -29 -9 -55t-3 -49q0 -96 46.5 -146.5t135.5 -50.5q122 0 193.5 88.5t111.5 292.5l109 555h225l-145 -739q-10 -49 -14.5 -81.5t-4.5 -51.5q0 -36 15.5 -51t52.5 -15q13 0 20.5 0.5t13.5 1.5l-32 -159q-32 -9 -68.5 -13t-81.5 -4
q-74 0 -111.5 31.5t-37.5 93.5v15q-41 -67 -108 -104.5t-146 -37.5q-81 0 -137.5 26t-97.5 83l-99 -506h-229z" />
    <glyph glyph-name="partialdiff" unicode="&#x2202;" horiz-adv-x="1075" 
d="M758 639q17 103 26 186.5t9 147.5q0 120 -29 174.5t-92 54.5q-62 0 -147 -58.5t-122 -58.5t-64.5 26t-27.5 60q0 66 79 115t200 49q176 0 287.5 -159t111.5 -422q0 -338 -150 -558.5t-376 -220.5q-161 0 -266 112t-105 286q0 193 113 322.5t278 129.5q101 0 167.5 -45
t107.5 -141zM705 504q0 116 -41 178.5t-117 62.5q-105 0 -174.5 -131.5t-69.5 -337.5q0 -116 40.5 -177.5t117.5 -61.5q105 0 174.5 132.5t69.5 334.5z" />
    <glyph glyph-name="summation" unicode="&#x2211;" horiz-adv-x="1421" 
d="M61 1473h1280v-226h-921l647 -684l-661 -729h974v-227h-1347v160l712 786l-684 719v201z" />
    <glyph glyph-name="product" unicode="&#x220f;" horiz-adv-x="1579" 
d="M154 1473h1267v-1866h-286v1622h-695v-1622h-286v1866z" />
    <glyph glyph-name="pi" unicode="&#x3c0;" horiz-adv-x="1368" 
d="M360 889h-45q-54 0 -83.5 -31.5t-39.5 -99.5h-174q28 187 100 255t242 68h953l-39 -192h-193l-84 -437q-2 -13 -8 -41q-22 -113 -22 -147q0 -58 23 -82t77 -24q18 0 42.5 2.5t59.5 7.5l-34 -168q-29 -8 -61 -12t-75 -4q-139 0 -202.5 48t-63.5 154q0 77 52 344l1 6
l70 353h-268l-174 -889h-226z" />
    <glyph glyph-name="integral" unicode="&#x222b;" horiz-adv-x="1120" 
d="M324 -258q106 0 122 692q2 81 3 123q13 538 113 766.5t312 228.5q87 0 143 -45.5t56 -111.5q0 -61 -34 -95t-95 -34q-45 0 -74.5 22.5t-40.5 65.5q-4 17 -6 45q-3 40 -26 41q-101 0 -119 -615q-5 -161 -8 -249q-10 -280 -30.5 -427t-59.5 -245q-55 -136 -139.5 -205.5
t-194.5 -69.5q-87 0 -142 44t-55 112q0 63 35.5 97t99.5 34q39 0 66 -18t41 -54q6 -16 9 -59t24 -43z" />
    <glyph glyph-name="ordfeminine" unicode="&#xaa;" horiz-adv-x="621" 
d="M209 987q0 -57 17.5 -83.5t54.5 -26.5q41 0 65.5 33t24.5 89v170q0 57 -21.5 86t-62.5 29t-59.5 -27.5t-18.5 -87.5v-182zM383 838q-37 -43 -75 -63.5t-81 -20.5q-82 0 -127 64t-45 183v187q0 102 48.5 159.5t132.5 57.5q53 0 90 -20.5t65 -65.5v74h191v-115h-58v-397h58
v-115h-199v72z" />
    <glyph glyph-name="ordmasculine" unicode="&#xba;" horiz-adv-x="551" 
d="M195 1004q0 -66 19.5 -98t59.5 -32q42 0 62 32.5t20 97.5v153q0 65 -20 97t-62 32q-40 0 -59.5 -31.5t-19.5 -97.5v-153zM41 1004v153q0 121 59.5 184.5t173.5 63.5q116 0 176 -63.5t60 -184.5v-153q0 -123 -60 -186.5t-176 -63.5q-115 0 -174 63.5t-59 186.5z" />
    <glyph glyph-name="Omega" unicode="&#x3a9;" horiz-adv-x="1569" 
d="M1194 213h305v-213h-602v229q160 94 242 244.5t82 351.5q0 210 -121 341.5t-316 131.5q-197 0 -316.5 -132.5t-119.5 -352.5q0 -191 84 -342t240 -242v-229h-602v213h305q-144 130 -211.5 274t-67.5 322q0 314 190.5 508t497.5 194q303 0 496 -192.5t193 -493.5
q0 -190 -65.5 -333t-213.5 -279z" />
    <glyph glyph-name="ae" unicode="&#xe6;" horiz-adv-x="1155" 
d="M481 301q0 60 -31.5 97.5t-80.5 37.5t-81 -38t-32 -97v-25q0 -60 31 -96.5t82 -36.5q49 0 80.5 37t31.5 96v25zM903 592q0 74 -27.5 116t-76.5 42q-60 0 -86.5 -43t-26.5 -140v-24h217v49zM596 823q42 46 91 68t106 22q144 0 224.5 -100.5t80.5 -282.5v-124h-412v-58
q0 -104 28 -154.5t85 -50.5q46 0 74 35.5t36 102.5l185 -1q-10 -142 -89 -219t-214 -77q-79 0 -139 28.5t-97 83.5q-44 -56 -101 -84t-128 -28q-120 0 -196.5 76.5t-76.5 195.5v57q0 117 72 193t184 76q52 0 94 -16t78 -50v96q0 65 -32 101.5t-91 36.5q-45 0 -77.5 -24
t-44.5 -67h-136v236h129v-49q35 33 75.5 50t84.5 17q65 0 116 -22t91 -68z" />
    <glyph glyph-name="oslash" unicode="&#xf8;" horiz-adv-x="739" 
d="M260 285l191 417q-11 23 -33.5 36.5t-50.5 13.5q-55 0 -82 -47.5t-27 -143.5v-227q0 -24 0.5 -33t1.5 -16zM281 193q16 -25 37 -36.5t49 -11.5q56 0 83 46.5t27 142.5v227q0 24 -0.5 36t-1.5 21zM55 338v221q0 174 79.5 264t232.5 90q43 0 81 -7.5t72 -22.5l78 174h94
l-102 -223q45 -46 67.5 -114.5t22.5 -160.5v-221q0 -173 -80.5 -263.5t-232.5 -90.5q-45 0 -82 7.5t-68 22.5l-82 -180h-94l106 229q-45 40 -68.5 109t-23.5 166z" />
    <glyph glyph-name="questiondown" unicode="&#xbf;" horiz-adv-x="811" 
d="M463 1178q-53 0 -88 35.5t-35 89.5q0 49 37.5 83.5t89.5 34.5q48 0 83.5 -36.5t35.5 -86.5q0 -49 -36.5 -84.5t-86.5 -35.5zM375 705v266h180v-406h-31q-130 0 -187.5 -52.5t-57.5 -170.5q0 -94 38 -143t111 -49q64 0 99.5 41t35.5 114h180v-43q0 -136 -85 -213.5
t-234 -77.5q-162 0 -247 95.5t-85 277.5q0 165 73 258t210 103z" />
    <glyph glyph-name="exclamdown" unicode="&#xa1;" horiz-adv-x="582" 
d="M414 1298q0 -49 -36.5 -84.5t-86.5 -35.5q-52 0 -87.5 34.5t-35.5 85.5q0 52 36.5 87.5t86.5 35.5q49 0 86 -36.5t37 -86.5zM209 983h164q4 -268 14.5 -514.5t26.5 -468.5h-246q16 224 26 470.5t15 512.5z" />
    <glyph glyph-name="logicalnot" unicode="&#xac;" horiz-adv-x="1706" 
d="M254 862h1198v-502h-166v336h-1032v166z" />
    <glyph glyph-name="radical" unicode="&#x221a;" horiz-adv-x="1323" 
d="M1128 1675h197v-110h-108l-594 -1606h-82l-316 872l-131 -49l-28 95l305 108l247 -688z" />
    <glyph glyph-name="florin" unicode="&#x192;" horiz-adv-x="797" 
d="M729 1388l-10 -163q-25 2 -37 3t-20 1q-85 0 -120 -54.5t-55 -271.5l-6 -86h181v-166h-195l-49 -510q-31 -331 -109 -440t-250 -109q-22 0 -78 8l-6 1l13 155q9 -1 18 -1.5t27 -0.5q147 0 175 305q2 21 3 31l55 561h-166v166h185l8 90q20 248 103.5 368t236.5 120
q25 0 48.5 -1.5t47.5 -5.5z" />
    <glyph glyph-name="approxequal" unicode="&#x2248;" horiz-adv-x="1706" 
d="M1530 592v-186q-107 -73 -200 -106.5t-189 -33.5q-89 0 -279.5 66.5t-298.5 66.5q-84 0 -173.5 -36t-211.5 -121v184q112 75 206.5 110t180.5 35q118 0 309 -67.5t277 -67.5q83 0 172 36.5t207 119.5zM1530 979v-184q-109 -75 -201.5 -108.5t-187.5 -33.5
q-88 0 -278.5 67.5t-299.5 67.5q-82 0 -170 -35t-215 -122v184q109 73 205 109.5t182 36.5q120 0 310 -68t268 -68q92 0 181 35t206 119z" />
    <glyph glyph-name="Delta" unicode="&#x2206;" horiz-adv-x="1395" 
d="M698 1196l-379 -983h756zM569 1473h256l574 -1473h-1403z" />
    <glyph glyph-name="guillemotleft" unicode="&#xab;" horiz-adv-x="936" 
d="M57 457l244 317h195l-242 -317l242 -318h-195zM440 457l244 317h195l-242 -317l242 -318h-195z" />
    <glyph glyph-name="guillemotright" unicode="&#xbb;" horiz-adv-x="936" 
d="M879 457l-242 -318h-197l244 318l-244 317h197zM496 457l-242 -318h-197l244 318l-244 317h197z" />
    <glyph glyph-name="ellipsis" unicode="&#x2026;" horiz-adv-x="2048" 
d="M219 106q0 50 36.5 86.5t86.5 36.5t86.5 -36t36.5 -87q0 -50 -37 -86t-86 -36t-86 36.5t-37 85.5zM901 106q0 50 36.5 86.5t86.5 36.5t86.5 -36t36.5 -87q0 -50 -37 -86t-86 -36t-86 36.5t-37 85.5zM1585 106q0 50 36.5 86.5t86.5 36.5t86.5 -36t36.5 -87q0 -50 -37 -86
t-86 -36t-86 36.5t-37 85.5z" />
    <glyph glyph-name="nonbreakingspace" unicode="&#xa0;" horiz-adv-x="797" 
 />
    <glyph glyph-name="Agrave" unicode="&#xc0;" horiz-adv-x="1100" 
d="M412 569h260l-127 568zM20 0v180h89l274 1034h-121v181h586v-181h-121l270 -1034h82v-180h-440v180h123l-55 234h-332l-58 -234h119v-180h-416zM299 1892h215l178 -358h-121z" />
    <glyph glyph-name="Atilde" unicode="&#xc3;" horiz-adv-x="1100" 
d="M412 569h260l-127 568zM20 0v180h89l274 1034h-121v181h586v-181h-121l270 -1034h82v-180h-440v180h123l-55 234h-332l-58 -234h119v-180h-416zM830 1833q-22 -116 -67.5 -172.5t-117.5 -56.5q-14 0 -29 2.5t-34 7.5l-85 29q-11 4 -22.5 6t-25.5 2q-34 0 -53 -16.5
t-31 -55.5h-93q20 110 66.5 166.5t116.5 56.5q15 0 32 -3t33 -9l87 -27q14 -5 26 -7.5t22 -2.5q31 0 50 18.5t32 61.5h93z" />
    <glyph glyph-name="Otilde" unicode="&#xd5;" horiz-adv-x="922" 
d="M858 1004v-615q0 -206 -101 -312t-296 -106t-296.5 106t-101.5 312v615q0 205 101.5 311t296.5 106t296 -106t101 -311zM614 1018q0 108 -36.5 157.5t-116.5 49.5t-117 -49.5t-37 -157.5v-641q0 -108 37 -157.5t117 -49.5t116.5 49.5t36.5 157.5v641zM740 1833
q-22 -116 -67.5 -172.5t-117.5 -56.5q-14 0 -29 2.5t-34 7.5l-85 29q-11 4 -22.5 6t-25.5 2q-34 0 -53 -16.5t-31 -55.5h-93q20 110 66.5 166.5t116.5 56.5q15 0 32 -3t33 -9l87 -27q14 -5 26 -7.5t22 -2.5q31 0 50 18.5t32 61.5h93z" />
    <glyph glyph-name="OE" unicode="&#x152;" horiz-adv-x="1483" 
d="M631 1067q0 89 -24.5 116t-94.5 27q-105 0 -155 -66.5t-50 -207.5v-477q0 -141 50 -208t155 -67q70 0 94.5 27.5t24.5 116.5v739zM535 1395h866v-394h-197v216h-334v-379h299v-201h-299v-459h336v250h201v-428h-872q-240 0 -356 120.5t-116 371.5v411q0 250 116 371
t356 121z" />
    <glyph glyph-name="oe" unicode="&#x153;" horiz-adv-x="1149" 
d="M682 543h217v49q0 73 -27 112t-77 39q-61 0 -87 -40.5t-26 -135.5v-24zM262 338q0 -93 27 -138.5t82 -45.5q54 0 80 45t26 139v221q0 94 -26 139t-80 45q-55 0 -82 -45.5t-27 -138.5v-221zM580 76q-36 -46 -88 -69t-121 -23q-153 0 -233.5 90.5t-80.5 263.5v221
q0 173 80.5 263.5t233.5 90.5q69 0 122 -24t95 -76q34 49 87 74.5t118 25.5q140 0 219.5 -100.5t79.5 -282.5v-124h-410v-58q0 -101 27 -147.5t86 -46.5q48 0 75 31t35 95l184 1q-9 -143 -88.5 -220t-218.5 -77q-68 0 -119.5 23t-82.5 69z" />
    <glyph glyph-name="endash" unicode="&#x2013;" 
d="M1024 535v-129h-1024v129h1024z" />
    <glyph glyph-name="emdash" unicode="&#x2014;" horiz-adv-x="2048" 
d="M2048 535v-129h-2048v129h2048z" />
    <glyph glyph-name="quotedblleft" unicode="&#x201c;" horiz-adv-x="731" 
d="M502 1395h176l-129 -428h-174zM170 1395h174l-129 -428h-174z" />
    <glyph glyph-name="quotedblright" unicode="&#x201d;" horiz-adv-x="731" 
d="M502 1395h176l-129 -428h-174zM170 1395h174l-129 -428h-174z" />
    <glyph glyph-name="quoteleft" unicode="&#x2018;" horiz-adv-x="397" 
d="M170 1395h174l-129 -428h-174z" />
    <glyph glyph-name="quoteright" unicode="&#x2019;" horiz-adv-x="397" 
d="M170 1395h174l-129 -428h-174z" />
    <glyph glyph-name="divide" unicode="&#xf7;" horiz-adv-x="1706" 
d="M854 367q57 0 97 -40.5t40 -97.5q0 -56 -39.5 -95.5t-97.5 -39.5t-97.5 39t-39.5 96t40.5 97.5t96.5 40.5zM254 694h1198v-166h-1198v166zM854 1128q57 0 97 -41t40 -98q0 -56 -39.5 -95.5t-97.5 -39.5t-97.5 39t-39.5 96t40.5 98t96.5 41z" />
    <glyph glyph-name="lozenge" unicode="&#x25ca;" horiz-adv-x="1012" 
d="M506 1409l-385 -817l385 -825l385 825zM506 1653l500 -1061l-500 -1069l-500 1069z" />
    <glyph glyph-name="ydieresis" unicode="&#xff;" horiz-adv-x="825" 
d="M119 -379v164h90l100 270l-229 676h-70v164h344v-164h-73l133 -457l147 457h-82v164h336v-164h-74l-352 -946h96v-164h-366zM480 1081v230h206v-230h-206zM142 1081v230h206v-230h-206z" />
    <glyph glyph-name="Ydieresis" unicode="&#x178;" 
d="M25 1395h424v-181h-101l164 -452l186 452h-100v181h401v-181h-81l-300 -665v-369h115v-180h-471v180h115v377l-268 657h-84v181zM578 1591v230h206v-230h-206zM240 1591v230h206v-230h-206z" />
    <glyph glyph-name="fraction" unicode="&#x2215;" horiz-adv-x="342" 
d="M-342 -29l913 1424h111l-913 -1424h-111z" />
    <glyph glyph-name="currency" unicode="&#xa4;" horiz-adv-x="797" 
d="M739 371q0 -206 -75.5 -303t-235.5 -97t-244 106.5t-84 311.5v139h-100l16 105h84v129h-100l16 104h84v109q0 210 77 315t233 105q59 0 107.5 -26t64.5 -69v68h153v-410h-188v80q0 91 -28.5 135t-88.5 44q-55 0 -83 -40t-28 -120v-191h308l-19 -104h-289v-129h261
l-17 -105h-244v-219q0 -80 28 -119.5t83 -39.5q57 0 87 40.5t30 118.5v125h192v-63z" />
    <glyph glyph-name="guilsinglleft" unicode="&#x2039;" horiz-adv-x="553" 
d="M57 457l244 317h195l-242 -317l242 -318h-195z" />
    <glyph glyph-name="guilsinglright" unicode="&#x203a;" horiz-adv-x="553" 
d="M496 457l-242 -318h-197l244 318l-244 317h197z" />
    <glyph glyph-name="fi" unicode="&#xf001;" horiz-adv-x="915" 
d="M555 1055v217h242v-217h-242zM514 0v164h80v567h-80v164h283v-731h77v-164h-360zM59 0v164h78v573h-78v158h78v258q0 125 52 183.5t163 58.5h90v-158q-58 0 -79 -23.5t-21 -93.5v-225h86v-158h-86v-573h78v-164h-361z" />
    <glyph glyph-name="fi" unicode="&#xfb01;" horiz-adv-x="915" 
d="M555 1055v217h242v-217h-242zM514 0v164h80v567h-80v164h283v-731h77v-164h-360zM59 0v164h78v573h-78v158h78v258q0 125 52 183.5t163 58.5h90v-158q-58 0 -79 -23.5t-21 -93.5v-225h86v-158h-86v-573h78v-164h-361z" />
    <glyph glyph-name="fl" unicode="&#xf002;" horiz-adv-x="915" 
d="M514 0v164h80v1065h-80v166h283v-1231h77v-164h-360zM59 0v164h78v573h-78v158h78v258q0 125 52 183.5t163 58.5h90v-158q-58 0 -79 -23.5t-21 -93.5v-225h86v-158h-86v-573h78v-164h-361z" />
    <glyph glyph-name="fl" unicode="&#xfb02;" horiz-adv-x="915" 
d="M514 0v164h80v1065h-80v166h283v-1231h77v-164h-360zM59 0v164h78v573h-78v158h78v258q0 125 52 183.5t163 58.5h90v-158q-58 0 -79 -23.5t-21 -93.5v-225h86v-158h-86v-573h78v-164h-361z" />
    <glyph glyph-name="daggerdbl" unicode="&#x2021;" 
d="M326 -281v125h112v306h-168v-105h-135v344h135v-104h168v567h-168v-104h-135v344h135v-105h168v283h-112v125h372v-125h-112v-283h168v105h135v-344h-135v104h-168v-567h168v104h135v-344h-135v105h-168v-306h112v-125h-372z" />
    <glyph glyph-name="periodcentered" unicode="&#xb7;" horiz-adv-x="397" 
d="M76 684q0 50 36.5 86.5t86.5 36.5q51 0 87 -36t36 -87t-36.5 -87t-86.5 -36q-49 0 -86 37t-37 86z" />
    <glyph glyph-name="quotesinglbase" unicode="&#x201a;" horiz-adv-x="397" 
d="M137 229h174l-129 -426h-174z" />
    <glyph glyph-name="quotedblbase" unicode="&#x201e;" horiz-adv-x="731" 
d="M473 229h174l-127 -426h-174zM141 229h174l-129 -426h-174z" />
    <glyph glyph-name="perthousand" unicode="&#x2030;" horiz-adv-x="1665" 
d="M199 -29l657 1424h107l-658 -1424h-106zM1350 217q0 -48 13 -71t40 -23t41 23.5t14 70.5v279q0 46 -13.5 69t-41.5 23t-40.5 -21.5t-12.5 -70.5v-279zM1212 209v293q0 103 48.5 156t142.5 53q95 0 144.5 -53.5t49.5 -155.5v-293q0 -103 -49.5 -156t-144.5 -53
q-94 0 -142.5 53t-48.5 156zM848 217q0 -47 13.5 -70.5t41.5 -23.5q27 0 40 23.5t13 70.5v279q0 47 -13 69.5t-40 22.5q-29 0 -42 -22t-13 -70v-279zM711 209v293q0 102 49 155.5t143 53.5q95 0 144 -53.5t49 -155.5v-293q0 -103 -49 -156t-144 -53q-94 0 -143 53.5
t-49 155.5zM205 870q0 -46 13.5 -69t41.5 -23t40.5 22.5t12.5 69.5v281q0 47 -13 69.5t-40 22.5q-28 0 -41.5 -23t-13.5 -69v-281zM68 864v293q0 102 49 155.5t143 53.5q95 0 144 -53t49 -156v-293q0 -103 -49 -156t-144 -53q-94 0 -143 53.5t-49 155.5z" />
    <glyph glyph-name="Acircumflex" unicode="&#xc2;" horiz-adv-x="1100" 
d="M412 569h260l-127 568zM20 0v180h89l274 1034h-121v181h586v-181h-121l270 -1034h82v-180h-440v180h123l-55 234h-332l-58 -234h119v-180h-416zM277 1534l174 358h200l174 -358h-120l-154 215l-154 -215h-120z" />
    <glyph glyph-name="Ecircumflex" unicode="&#xca;" 
d="M51 0v180h115v1034h-115v181h897v-394h-198v216h-342v-379h286v-201h-286v-459h342v250h198v-428h-897zM238 1534l174 358h200l174 -358h-120l-154 215l-154 -215h-120z" />
    <glyph glyph-name="Aacute" unicode="&#xc1;" horiz-adv-x="1100" 
d="M412 569h260l-127 568zM20 0v180h89l274 1034h-121v181h586v-181h-121l270 -1034h82v-180h-440v180h123l-55 234h-332l-58 -234h119v-180h-416zM590 1892h215l-272 -358h-123z" />
    <glyph glyph-name="Edieresis" unicode="&#xcb;" 
d="M51 0v180h115v1034h-115v181h897v-394h-198v216h-342v-379h286v-201h-286v-459h342v250h198v-428h-897zM578 1591v230h206v-230h-206zM240 1591v230h206v-230h-206z" />
    <glyph glyph-name="Egrave" unicode="&#xc8;" 
d="M51 0v180h115v1034h-115v181h897v-394h-198v216h-342v-379h286v-201h-286v-459h342v250h198v-428h-897zM260 1892h215l178 -358h-121z" />
    <glyph glyph-name="Iacute" unicode="&#xcd;" horiz-adv-x="575" 
d="M51 0v180h115v1034h-115v181h473v-181h-116v-1034h116v-180h-473zM328 1892h215l-272 -358h-123z" />
    <glyph glyph-name="Icircumflex" unicode="&#xce;" horiz-adv-x="575" 
d="M51 0v180h115v1034h-115v181h473v-181h-116v-1034h116v-180h-473zM15 1534l174 358h200l174 -358h-120l-154 215l-154 -215h-120z" />
    <glyph glyph-name="Idieresis" unicode="&#xcf;" horiz-adv-x="575" 
d="M51 0v180h115v1034h-115v181h473v-181h-116v-1034h116v-180h-473zM355 1591v230h206v-230h-206zM17 1591v230h206v-230h-206z" />
    <glyph glyph-name="Igrave" unicode="&#xcc;" horiz-adv-x="575" 
d="M51 0v180h115v1034h-115v181h473v-181h-116v-1034h116v-180h-473zM37 1892h215l178 -358h-121z" />
    <glyph glyph-name="Oacute" unicode="&#xd3;" horiz-adv-x="922" 
d="M858 1004v-615q0 -206 -101 -312t-296 -106t-296.5 106t-101.5 312v615q0 205 101.5 311t296.5 106t296 -106t101 -311zM614 1018q0 108 -36.5 157.5t-116.5 49.5t-117 -49.5t-37 -157.5v-641q0 -108 37 -157.5t117 -49.5t116.5 49.5t36.5 157.5v641zM500 1892h215
l-272 -358h-123z" />
    <glyph glyph-name="Ocircumflex" unicode="&#xd4;" horiz-adv-x="922" 
d="M858 1004v-615q0 -206 -101 -312t-296 -106t-296.5 106t-101.5 312v615q0 205 101.5 311t296.5 106t296 -106t101 -311zM614 1018q0 108 -36.5 157.5t-116.5 49.5t-117 -49.5t-37 -157.5v-641q0 -108 37 -157.5t117 -49.5t116.5 49.5t36.5 157.5v641zM187 1534l174 358
h200l174 -358h-120l-154 215l-154 -215h-120z" />
    <glyph glyph-name="apple" unicode="&#xf000;" horiz-adv-x="1618" 
d="M836 1216q-1 6 -1.5 14t-0.5 23q0 124 95 229.5t236 131.5q1 -10 1.5 -23t0.5 -39q0 -131 -103.5 -234.5t-203.5 -103.5h-8q-3 0 -7.5 1t-8.5 1zM1505 403q-114 -247 -205 -342.5t-204 -95.5q-50 0 -131.5 33t-122.5 33q-45 0 -131 -33t-127 -33q-64 0 -128.5 44
t-129.5 132q-102 140 -157.5 295.5t-55.5 300.5q0 219 125 356.5t323 137.5q68 0 155 -34t124 -34q34 0 121.5 35t152.5 35q110 0 198 -40t161 -124q-102 -65 -151.5 -145.5t-49.5 -182.5q0 -113 60 -200t173 -138z" />
    <glyph glyph-name="Ograve" unicode="&#xd2;" horiz-adv-x="922" 
d="M858 1004v-615q0 -206 -101 -312t-296 -106t-296.5 106t-101.5 312v615q0 205 101.5 311t296.5 106t296 -106t101 -311zM614 1018q0 108 -36.5 157.5t-116.5 49.5t-117 -49.5t-37 -157.5v-641q0 -108 37 -157.5t117 -49.5t116.5 49.5t36.5 157.5v641zM209 1892h215
l178 -358h-121z" />
    <glyph glyph-name="Uacute" unicode="&#xda;" horiz-adv-x="1130" 
d="M166 352v862h-115v181h465v-181h-108v-849q0 -102 37.5 -148.5t119.5 -46.5q81 0 118.5 46.5t37.5 148.5v849h-109v181h465v-181h-114v-862q0 -186 -101.5 -283.5t-296.5 -97.5t-297 97.5t-102 283.5zM604 1892h215l-272 -358h-123z" />
    <glyph glyph-name="Ucircumflex" unicode="&#xdb;" horiz-adv-x="1130" 
d="M166 352v862h-115v181h465v-181h-108v-849q0 -102 37.5 -148.5t119.5 -46.5q81 0 118.5 46.5t37.5 148.5v849h-109v181h465v-181h-114v-862q0 -186 -101.5 -283.5t-296.5 -97.5t-297 97.5t-102 283.5zM291 1534l174 358h200l174 -358h-120l-154 215l-154 -215h-120z" />
    <glyph glyph-name="Ugrave" unicode="&#xd9;" horiz-adv-x="1130" 
d="M166 352v862h-115v181h465v-181h-108v-849q0 -102 37.5 -148.5t119.5 -46.5q81 0 118.5 46.5t37.5 148.5v849h-109v181h465v-181h-114v-862q0 -186 -101.5 -283.5t-296.5 -97.5t-297 97.5t-102 283.5zM313 1892h215l178 -358h-121z" />
    <glyph glyph-name="dotlessi" unicode="&#x131;" horiz-adv-x="461" 
d="M59 0v164h78v567h-78v164h283v-731h78v-164h-361z" />
    <glyph glyph-name="circumflex" unicode="&#x2c6;" 
d="M238 1024l174 358h200l174 -358h-120l-154 215l-154 -215h-120z" />
    <glyph glyph-name="tilde" unicode="&#x2dc;" 
d="M791 1323q-22 -116 -67.5 -172.5t-117.5 -56.5q-14 0 -29 2.5t-34 7.5l-85 29q-11 4 -22.5 6t-25.5 2q-34 0 -53 -16.5t-31 -55.5h-93q20 110 66.5 166.5t116.5 56.5q15 0 32 -3t33 -9l87 -27q14 -5 26 -7.5t22 -2.5q31 0 50 18.5t32 61.5h93z" />
    <glyph glyph-name="macron" unicode="&#xaf;" 
d="M256 1120v152h514v-152h-514z" />
    <glyph glyph-name="breve" unicode="&#x2d8;" 
d="M240 1347h108q5 -71 45 -105t119 -34q80 0 120.5 34.5t43.5 104.5l108 1q-10 -151 -76 -221t-196 -70q-131 0 -197 71t-75 219z" />
    <glyph glyph-name="dotaccent" unicode="&#x2d9;" 
d="M412 1307h202v-228h-202v228z" />
    <glyph glyph-name="ring" unicode="&#x2da;" 
d="M512 1393q-55 0 -92 -38t-37 -93q0 -56 37 -92.5t92 -36.5q56 0 93.5 37t37.5 92t-38 93t-93 38zM512 1520q109 0 183.5 -74.5t74.5 -181.5q0 -109 -74.5 -183.5t-183.5 -74.5t-183.5 74.5t-74.5 183.5q0 108 74.5 182t183.5 74z" />
    <glyph glyph-name="cedilla" unicode="&#xb8;" 
d="M449 0h90v-96h20q110 0 168.5 -47t58.5 -136q0 -97 -64.5 -145.5t-195.5 -48.5q-50 0 -115.5 11t-142.5 32v111q85 -21 148.5 -31t105.5 -10q55 0 82 18.5t27 56.5q0 46 -31 66t-102 20q-19 0 -29.5 -0.5t-19.5 -1.5v201z" />
    <glyph glyph-name="hungarumlaut" unicode="&#x2dd;" 
d="M709 1382h190l-240 -358h-96zM436 1382h185l-209 -358h-93z" />
    <glyph glyph-name="ogonek" unicode="&#x2db;" 
d="M535 0h88q-67 -59 -98 -110t-31 -101q0 -43 21 -62.5t67 -19.5h90v-156h-76q-132 0 -192 42.5t-60 134.5q0 70 45 134.5t146 137.5z" />
    <glyph glyph-name="caron" unicode="&#x2c7;" 
d="M238 1382h120l154 -217l154 217h120l-174 -358h-200z" />
    <glyph glyph-name="Lslash" unicode="&#x141;" horiz-adv-x="983" 
d="M51 0v180h115v391l-166 -108v147l166 109v495h-115v181h473v-181h-116v-366l219 143v-147l-219 -144v-522h333v258h201v-436h-891z" />
    <glyph glyph-name="lslash" unicode="&#x142;" horiz-adv-x="442" 
d="M41 0v164h78v440l-119 -78v113l119 78v512h-78v166h283v-578l118 78v-113l-118 -77v-541h77v-164h-360z" />
    <glyph glyph-name="Scaron" unicode="&#x160;" horiz-adv-x="872" 
d="M76 0v436h180q10 -128 65 -199t142 -71q66 0 105.5 40t39.5 107q0 51 -26.5 97.5t-85.5 99.5l-242 215q-87 76 -130.5 167.5t-43.5 197.5q0 143 87 237t220 94q66 0 125 -28.5t111 -83.5v86h170v-379h-172q-15 100 -65.5 157.5t-121.5 57.5q-56 0 -95.5 -40t-39.5 -97
q0 -43 25 -86.5t73 -85.5l258 -232q98 -86 140.5 -172.5t42.5 -195.5q0 -154 -95.5 -251.5t-244.5 -97.5q-77 0 -140 33t-118 103v-109h-164zM162 1892h120l154 -217l154 217h120l-174 -358h-200z" />
    <glyph glyph-name="scaron" unicode="&#x161;" horiz-adv-x="659" 
d="M57 0v311h150q12 -79 47.5 -122.5t89.5 -43.5q39 0 61.5 21t22.5 57q0 27 -16 50.5t-58 56.5l-180 139q-52 41 -80 97t-28 118q0 100 60 164.5t153 64.5q45 0 87.5 -20t84.5 -62v64h135v-266h-142q-17 67 -47 98t-75 31q-32 0 -52 -19.5t-20 -50.5q0 -21 13.5 -40
t51.5 -48l160 -125q71 -55 104 -115.5t33 -134.5q0 -106 -62 -173.5t-159 -67.5q-53 0 -98 21.5t-88 68.5v-74h-148zM56 1382h120l154 -217l154 217h120l-174 -358h-200z" />
    <glyph glyph-name="Zcaron" unicode="&#x17d;" horiz-adv-x="901" 
d="M49 0v193l557 1024h-350v-220h-197v398h787v-183l-563 -1034h360v268h199v-446h-793zM177 1892h120l154 -217l154 217h120l-174 -358h-200z" />
    <glyph glyph-name="zcaron" unicode="&#x17e;" horiz-adv-x="758" 
d="M37 0v168l446 575h-264v-131h-164v283h650v-170l-443 -573h289v151h154v-303h-668zM105 1382h120l154 -217l154 217h120l-174 -358h-200z" />
    <glyph glyph-name="brokenbar" unicode="&#xa6;" 
d="M424 408h178v-758h-178v758zM424 1432h178v-758h-178v758z" />
    <glyph glyph-name="Eth" unicode="&#xd0;" horiz-adv-x="1036" 
d="M408 1217v-416h155v-123h-155v-500h45q147 0 211.5 77t64.5 253v450q0 141 -60 200t-202 59h-59zM51 1395h381q295 0 417 -109t122 -371v-368q0 -292 -115.5 -419.5t-378.5 -127.5h-426v180h115v498h-166v123h166v413h-115v181z" />
    <glyph glyph-name="eth" unicode="&#xf0;" horiz-adv-x="739" 
d="M262 338q0 -93 27 -138.5t82 -45.5q54 0 80 45t26 139v221q0 94 -26 139t-80 45q-55 0 -82 -45.5t-27 -138.5v-221zM57 338v221q0 170 78.5 261t222.5 91q28 0 51.5 -6t45.5 -18l-111 227l-203 -59l-26 73l194 58l-94 209h191l77 -156l164 53l25 -75l-154 -50l80 -166
q45 -90 64.5 -190t19.5 -252v-221q0 -174 -79 -264t-232 -90t-233.5 90.5t-80.5 263.5z" />
    <glyph glyph-name="Yacute" unicode="&#xdd;" 
d="M25 1395h424v-181h-101l164 -452l186 452h-100v181h401v-181h-81l-300 -665v-369h115v-180h-471v180h115v377l-268 657h-84v181zM551 1892h215l-272 -358h-123z" />
    <glyph glyph-name="yacute" unicode="&#xfd;" horiz-adv-x="825" 
d="M119 -379v164h90l100 270l-229 676h-70v164h344v-164h-73l133 -457l147 457h-82v164h336v-164h-74l-352 -946h96v-164h-366zM453 1382h215l-272 -358h-123z" />
    <glyph glyph-name="Thorn" unicode="&#xde;" horiz-adv-x="997" 
d="M408 494h100q117 0 158 37.5t41 144.5v94q0 90 -44 125t-159 35h-96v-436zM51 0v180h115v1034h-115v181h473v-181h-116v-114h135q205 0 300 -81t95 -255v-98q0 -177 -81 -260.5t-253 -83.5h-196v-142h116v-180h-473z" />
    <glyph glyph-name="thorn" unicode="&#xfe;" horiz-adv-x="815" 
d="M539 602q0 65 -25 97t-74 32q-55 0 -85.5 -39t-30.5 -110v-250q0 -89 30.5 -132.5t94.5 -43.5q46 0 68 32t22 101v313zM41 1395h283v-586q36 50 88 76t114 26q104 0 160.5 -65t56.5 -184v-418q0 -122 -56.5 -191t-156.5 -69q-61 0 -111.5 24t-94.5 74v-297h77v-164h-360
v164h78v1444h-78v166z" />
    <glyph glyph-name="minus" unicode="&#x2212;" horiz-adv-x="1706" 
d="M254 696h1198v-170h-1198v170z" />
    <glyph glyph-name="multiply" unicode="&#xd7;" horiz-adv-x="1706" 
d="M403 1188l459 -459l461 459l117 -117l-459 -461l459 -458l-117 -119l-461 461l-459 -461l-116 119l458 458l-458 461z" />
    <glyph glyph-name="onesuperior" unicode="&#xb9;" horiz-adv-x="526" 
d="M127 545v98h70v625h-70v96h211v-721h72v-98h-283z" />
    <glyph glyph-name="twosuperior" unicode="&#xb2;" horiz-adv-x="526" 
d="M41 1102v51q0 113 55.5 171t163.5 58q95 0 151 -54t56 -146q0 -53 -23.5 -114t-74.5 -138l-189 -283h176v117h115v-219h-434v104l188 281q53 80 76 136t23 103q0 51 -18.5 75t-55.5 24q-43 0 -62.5 -29t-19.5 -94v-43h-127z" />
    <glyph glyph-name="threesuperior" unicode="&#xb3;" horiz-adv-x="526" 
d="M336 977q64 -8 99.5 -63t35.5 -148q0 -119 -54.5 -178.5t-164.5 -59.5q-105 0 -158 56t-53 168v39h125v-31q0 -65 21 -96t65 -31q47 0 65.5 28t18.5 109q0 93 -25.5 122.5t-95.5 29.5h-10v98h6q71 0 97 27.5t26 109.5q0 65 -18 93t-60 28q-43 0 -63.5 -30t-20.5 -93v-25
h-121v31q0 111 51 166t154 55q101 0 154 -56t53 -163q0 -92 -31.5 -138t-95.5 -48z" />
    <glyph glyph-name="onequarter" unicode="&#xbc;" horiz-adv-x="1346" 
d="M1106 766h127v-465h61v-90h-61v-121h61v-90h-256v90h68v121h-236v98zM963 301h145l2 285zM160 -29l913 1424h111l-914 -1424h-110zM121 600v92h65v582h-65v92h201v-674h67v-92h-268z" />
    <glyph glyph-name="onehalf" unicode="&#xbd;" horiz-adv-x="1346" 
d="M885 520v47q0 106 52 159.5t157 53.5q91 0 142.5 -49.5t51.5 -136.5q0 -49 -22.5 -105.5t-71.5 -128.5l-178 -264h168v109h110v-205h-413v98l178 260q50 73 72 126t22 98q0 47 -17 69.5t-53 22.5q-41 0 -60 -27.5t-19 -87.5v-39h-119zM160 -29l913 1424h111l-914 -1424
h-110zM121 600v92h65v582h-65v92h201v-674h67v-92h-268z" />
    <glyph glyph-name="threequarters" unicode="&#xbe;" horiz-adv-x="1346" 
d="M1106 766h127v-465h61v-90h-61v-121h61v-90h-256v90h68v121h-236v98zM963 301h145l2 285zM160 -29l913 1424h111l-914 -1424h-110zM322 1004q61 -7 95 -58.5t34 -138.5q0 -111 -52.5 -167t-156.5 -56q-101 0 -151 52t-50 159v34h117v-28q0 -60 20 -89.5t62 -29.5
q45 0 62 25.5t17 103.5q0 87 -23.5 113t-90.5 26h-8v92h4q68 0 93 26.5t25 102.5q0 61 -17.5 87t-57.5 26t-59 -28t-19 -87v-22h-117v29q0 103 48.5 153.5t146.5 50.5q97 0 147.5 -51.5t50.5 -150.5q0 -86 -30 -129.5t-90 -44.5z" />
    <glyph glyph-name="franc" unicode="&#x20a3;" horiz-adv-x="1638" 
d="M51 0v180h115v1034h-115v181h910v-400h-199v222h-354v-379h286v-201h-286v-457h116v-180h-473zM1567 913h57v-233q-27 6 -53 9t-49 3q-98 0 -146.5 -61.5t-48.5 -184.5v-282h100v-164h-391v164h86v567h-78v164h269v-160q45 89 108.5 133.5t145.5 44.5z" />
    <glyph glyph-name="Gbreve" unicode="&#x11e;" horiz-adv-x="887" 
d="M666 76q-49 -51 -110 -78t-126 -27q-178 0 -272.5 116t-94.5 335v539q0 226 88 343t257 117q73 0 132 -29.5t101 -86.5v90h168v-410h-182l-2 39q-5 102 -43 151.5t-111 49.5q-84 0 -124 -53.5t-40 -167.5v-617q0 -114 39 -165.5t125 -51.5q82 0 123 54.5t41 164.5v103
h-123v186h322v-678h-115zM172 1857h108q5 -71 45 -105t119 -34q80 0 120.5 34.5t43.5 104.5l108 1q-10 -151 -76 -221t-196 -70q-131 0 -197 71t-75 219z" />
    <glyph glyph-name="gbreve" unicode="&#x11f;" horiz-adv-x="815" 
d="M274 322q0 -82 25 -121t76 -39q57 0 87 45t30 133v229q0 85 -30.5 127.5t-90.5 42.5q-48 0 -72.5 -36t-24.5 -107v-274zM696 23q0 -220 -83.5 -325.5t-256.5 -105.5q-74 0 -136 16.5t-111 49.5v182q49 -40 101 -59t112 -19q91 0 130.5 51.5t39.5 174.5v102
q-41 -56 -86 -81t-105 -25q-112 0 -171.5 79.5t-59.5 229.5v315q0 144 61 223.5t170 79.5q62 0 114.5 -30t100.5 -95v109h258v-164h-78v-708zM136 1347h108q5 -71 45 -105t119 -34q80 0 120.5 34.5t43.5 104.5l108 1q-10 -151 -76 -221t-196 -70q-131 0 -197 71t-75 219z
" />
    <glyph glyph-name="Idotaccent" unicode="&#x130;" horiz-adv-x="575" 
d="M51 0v180h115v1034h-115v181h473v-181h-116v-1034h116v-180h-473zM189 1817h202v-228h-202v228z" />
    <glyph glyph-name="Scedilla" unicode="&#x15e;" horiz-adv-x="872" 
d="M76 0v436h180q10 -128 65 -199t142 -71q66 0 105.5 40t39.5 107q0 51 -26.5 97.5t-85.5 99.5l-242 215q-87 76 -130.5 167.5t-43.5 197.5q0 143 87 237t220 94q66 0 125 -28.5t111 -83.5v86h170v-379h-172q-15 100 -65.5 157.5t-121.5 57.5q-56 0 -95.5 -40t-39.5 -97
q0 -43 25 -86.5t73 -85.5l258 -232q98 -86 140.5 -172.5t42.5 -195.5q0 -154 -95.5 -251.5t-244.5 -97.5q-77 0 -140 33t-118 103v-109h-164zM373 0h90v-96h20q110 0 168.5 -47t58.5 -136q0 -97 -64.5 -145.5t-195.5 -48.5q-50 0 -115.5 11t-142.5 32v111q85 -21 148.5 -31
t105.5 -10q55 0 82 18.5t27 56.5q0 46 -31 66t-102 20q-19 0 -29.5 -0.5t-19.5 -1.5v201z" />
    <glyph glyph-name="scedilla" unicode="&#x15f;" horiz-adv-x="659" 
d="M57 0v311h150q12 -79 47.5 -122.5t89.5 -43.5q39 0 61.5 21t22.5 57q0 27 -16 50.5t-58 56.5l-180 139q-52 41 -80 97t-28 118q0 100 60 164.5t153 64.5q45 0 87.5 -20t84.5 -62v64h135v-266h-142q-17 67 -47 98t-75 31q-32 0 -52 -19.5t-20 -50.5q0 -21 13.5 -40
t51.5 -48l160 -125q71 -55 104 -115.5t33 -134.5q0 -106 -62 -173.5t-159 -67.5q-53 0 -98 21.5t-88 68.5v-74h-148zM267 0h90v-96h20q110 0 168.5 -47t58.5 -136q0 -97 -64.5 -145.5t-195.5 -48.5q-50 0 -115.5 11t-142.5 32v111q85 -21 148.5 -31t105.5 -10q55 0 82 18.5
t27 56.5q0 46 -31 66t-102 20q-19 0 -29.5 -0.5t-19.5 -1.5v201z" />
    <glyph glyph-name="Cacute" unicode="&#x106;" horiz-adv-x="885" 
d="M840 461v-58q0 -211 -99 -321.5t-288 -110.5q-192 0 -291 114.5t-99 336.5v512q0 242 86.5 364.5t258.5 122.5q73 0 132.5 -25.5t100.5 -76.5v76h176v-420h-190l-2 37q-7 107 -45 160t-109 53q-84 0 -124 -53.5t-40 -167.5v-615q0 -114 39.5 -166.5t124.5 -52.5
q82 0 123 55.5t41 165.5v70h205zM483 1892h215l-272 -358h-123z" />
    <glyph glyph-name="cacute" unicode="&#x107;" horiz-adv-x="711" 
d="M666 332v-23q0 -153 -77 -239t-214 -86q-157 0 -237.5 98.5t-80.5 292.5v188q0 167 68 258.5t190 91.5q46 0 91 -21t92 -65v68h147v-301h-168q-6 75 -34 112t-78 37q-54 0 -78.5 -46t-24.5 -150v-182q0 -113 25.5 -162t83.5 -49q55 0 82.5 41.5t27.5 126.5v10h185z
M395 1382h215l-272 -358h-123z" />
    <glyph glyph-name="Ccaron" unicode="&#x10c;" horiz-adv-x="885" 
d="M840 461v-58q0 -211 -99 -321.5t-288 -110.5q-192 0 -291 114.5t-99 336.5v512q0 242 86.5 364.5t258.5 122.5q73 0 132.5 -25.5t100.5 -76.5v76h176v-420h-190l-2 37q-7 107 -45 160t-109 53q-84 0 -124 -53.5t-40 -167.5v-615q0 -114 39.5 -166.5t124.5 -52.5
q82 0 123 55.5t41 165.5v70h205zM170 1892h120l154 -217l154 217h120l-174 -358h-200z" />
    <glyph glyph-name="ccaron" unicode="&#x10d;" horiz-adv-x="711" 
d="M666 332v-23q0 -153 -77 -239t-214 -86q-157 0 -237.5 98.5t-80.5 292.5v188q0 167 68 258.5t190 91.5q46 0 91 -21t92 -65v68h147v-301h-168q-6 75 -34 112t-78 37q-54 0 -78.5 -46t-24.5 -150v-182q0 -113 25.5 -162t83.5 -49q55 0 82.5 41.5t27.5 126.5v10h185z
M82 1382h120l154 -217l154 217h120l-174 -358h-200z" />
    <glyph glyph-name="dcroat" unicode="&#x111;" horiz-adv-x="815" 
d="M274 322q0 -85 24.5 -122.5t78.5 -37.5q56 0 85.5 45t29.5 133v242q0 78 -29 117.5t-86 39.5q-52 0 -77.5 -35.5t-25.5 -107.5v-274zM512 106q-45 -63 -96.5 -92.5t-116.5 -29.5q-109 0 -169 80t-60 227v317q0 147 60 226t169 79q56 0 105.5 -26t91.5 -76v209h-195v96
h195v117h-82v162h282v-279h119v-96h-119v-856h78v-164h-262v106z" />
    <glyph glyph-name="sfthyphen" unicode="&#xad;" horiz-adv-x="621" 
d="M57 385v170h504v-170h-504z" />
    <glyph glyph-name="periodcentered" unicode="&#x2219;" horiz-adv-x="397" 
d="M76 684q0 50 36.5 86.5t86.5 36.5q51 0 87 -36t36 -87t-36.5 -87t-86.5 -36q-49 0 -86 37t-37 86z" />
    <glyph glyph-name="Euro" horiz-adv-x="797" 
d="M739 371q0 -206 -75.5 -303t-235.5 -97t-244 106.5t-84 311.5v139h-100l16 105h84v129h-100l16 104h84v109q0 210 77 315t233 105q59 0 107.5 -26t64.5 -69v68h153v-410h-188v80q0 91 -28.5 135t-88.5 44q-55 0 -83 -40t-28 -120v-191h308l-19 -104h-289v-129h261
l-17 -105h-244v-219q0 -80 28 -119.5t83 -39.5q57 0 87 40.5t30 118.5v125h192v-63z" />
    <glyph glyph-name="Euro" unicode="&#x20ac;" horiz-adv-x="797" 
d="M739 371q0 -206 -75.5 -303t-235.5 -97t-244 106.5t-84 311.5v139h-100l16 105h84v129h-100l16 104h84v109q0 210 77 315t233 105q59 0 107.5 -26t64.5 -69v68h153v-410h-188v80q0 91 -28.5 135t-88.5 44q-55 0 -83 -40t-28 -120v-191h308l-19 -104h-289v-129h261
l-17 -105h-244v-219q0 -80 28 -119.5t83 -39.5q57 0 87 40.5t30 118.5v125h192v-63z" />
    </font>
</defs>
</svg>
